<?xml version="1.0" encoding="utf-8" ?>
<svg xmlns="http://www.w3.org/2000/svg" xmlns:xlink="http://www.w3.org/1999/xlink" width="1920" height="1920">
	<path transform="scale(3 3)" d="M319.877 57.7822C330.132 57.7988 327.822 70.6331 327.859 77.5064C333.321 77.9532 344.906 76.1172 348.868 79.7566C351.896 82.5373 351.634 86.9033 348.773 89.7034C344.635 93.753 333.406 92.2325 327.776 92.1681C327.567 102.983 327.443 113.906 327.72 124.715C346.222 138.41 358.963 195.119 363.23 216.274C364.494 222.545 366.554 229.252 366.595 235.649C369.13 238.833 373.013 241.396 376.203 243.927L391.864 256.255C425.847 282.745 461.042 307.541 495.576 333.287L515.034 347.529C521.208 351.968 528.758 356.229 532.946 362.791C545.003 381.685 528.335 398.879 505.717 393.513C507.213 409.467 507.833 425.563 509 441.549C510.505 462.145 517.462 488.492 501.455 504.389C489.202 516.556 474.637 515.358 458.636 515.363L319.297 515.363L181.766 515.375C159.019 515.383 134.034 514.559 129.266 484.866C127.891 476.302 130.127 460.631 130.794 451.571L135.043 393.444C119.686 396.245 101.807 393.216 104.261 372.671C105.929 358.704 119.482 352.083 129.706 344.513L163.407 319.521C200.786 291.963 237.1 265.176 273.487 236.363C277.605 205.507 292.012 143.447 313.393 124.373L313.338 92.2921C307.663 91.9914 295.964 93.985 291.735 90.0881C288.994 87.5617 289.104 82.6243 291.775 80.0913C295.925 76.1559 307.787 77.5645 313.343 77.6742C313.803 69.6412 310.539 61.3227 319.877 57.7822ZM320.407 258.167C303.108 272.533 286.319 287.517 268.595 301.368C244.849 319.925 220.084 336.981 195.588 354.512L171.581 371.804C164.681 376.756 157.645 382.054 150.011 385.822C149.955 396.095 148.782 406.477 147.886 416.709L144.657 456.262C141.408 498.514 143.335 501.109 189.83 501.095L242.942 501.083C251.628 501.082 261.128 500.532 269.675 501.185C270.478 471.61 278.934 400.976 319.971 400.132C353.602 400.32 367.256 452.425 369.66 478.205C370.371 485.822 370.278 493.606 370.32 501.251C380.008 500.901 389.744 501.086 399.439 501.087L447.818 501.084C468.857 501.076 498.572 506.479 497.228 475.337C496.291 453.647 493.887 430.659 492.333 408.861C491.838 401.92 491.668 394.695 490.807 387.811C490.375 384.364 486.383 383.697 483.813 381.941L461.629 366.573C419.188 336.814 379.043 307.708 339.236 274.457C332.929 269.189 326.881 263.121 320.407 258.167ZM320.217 219.005C309.932 224.627 299.792 234.269 290.619 241.744C245.643 278.395 198.116 311.675 151.692 346.424L133.064 360.115C128.265 363.595 121.684 367.081 118.463 372.231C118.721 394.59 155.953 365.034 162.429 360.385L189.359 340.912C225.779 314.751 260.101 290.175 294.287 261.179C297.437 258.507 316.827 240.706 320.717 241.657C329.557 245.318 339.943 256.083 347.492 262.391L376.382 286.086C409.132 312.435 446.631 338.845 481.627 362.686C489.169 367.825 516.779 390.732 522.064 375.753L522.307 375.048C519.25 366.18 504.287 357.839 496.927 352.364L451.255 318.884C426.143 300.766 401.341 282.201 376.993 263.069L344.944 237.649C339.92 233.641 325.452 220.081 320.217 219.005ZM319.206 414.827C290.421 418.486 284.386 479.58 284.19 500.957C296.658 501.306 309.271 501.292 321.74 501.001C333.161 501.178 344.584 500.993 356.004 501.236C356.111 479.749 349.674 415.383 319.206 414.827ZM320.058 138.022C306.339 152.173 294.489 199.996 290.486 222.753C299.043 217.045 310.8 203.976 321.32 204.002C330.104 206.624 343.496 217.094 350.018 223.584C347.637 210.271 332.381 144.082 320.058 138.022Z"/>
	<path transform="scale(3 3)" d="M318.736 287.931C360.715 286.509 361.891 348.773 321.953 350.351C280.466 350.952 276.066 293.966 318.736 287.931ZM317.695 302.938C294.506 307.952 301.921 339.507 322.757 335.817C345.402 329.727 339.381 300.562 317.695 302.938Z"/>
	<path transform="scale(3 3)" d="M433.311 377.566C462.42 376.064 467.082 424.061 467.238 444.261C467.412 466.862 460.933 464.842 440.781 464.733C413.867 464.652 406.633 471.093 406.425 439.65C406.302 421.184 409.362 381.662 433.311 377.566ZM433.853 392.55C419.704 402.307 420.45 435.037 420.964 450.145C427.452 450.218 433.94 450.119 440.428 450.153L452.812 450.167C452.763 439.662 451.46 391.155 433.853 392.55Z"/>
	<path transform="scale(3 3)" d="M204.05 377.285C228.443 376.944 233.728 417.1 234.015 434.627C234.508 464.709 233.175 464.828 204.453 464.717C179 464.608 173.431 469.451 173.531 441.058C173.603 420.444 177.436 380.621 204.05 377.285ZM203.955 392.14C187.973 398.947 187.669 436.398 187.806 450.15C193.355 450.048 198.922 450.227 204.464 449.994C209.385 449.913 214.36 449.715 219.278 449.904C220.473 438.016 220.328 394.85 203.955 392.14Z"/>
</svg>
