<?xml version="1.0" encoding="utf-8" ?>
<svg xmlns="http://www.w3.org/2000/svg" xmlns:xlink="http://www.w3.org/1999/xlink" width="4106" height="2092">
	<path transform="matrix(1.33727 0 0 1.33727 6.10352e-05 0)" d="M2360.16 432.5C2364.69 431.818 2369.59 431.207 2373.86 433.339C2378.31 435.569 2381.86 439.951 2383.11 444.765C2384.12 448.673 2383.7 452.716 2381.6 456.197C2379.07 460.416 2375.66 462.371 2370.99 463.501C2369.12 464.272 2367.81 464.436 2365.77 464.314C2361.16 464.037 2357.34 463.184 2354.26 459.43C2351.06 455.523 2350.28 449.512 2351.06 444.661C2352.07 438.436 2355.28 435.792 2360.16 432.5Z"/>
	<path transform="matrix(1.33727 0 0 1.33727 6.10352e-05 0)" d="M1987.03 950.5C1991.68 949.862 1996.39 949.166 2000.79 951.358C2005.24 953.577 2008.78 957.962 2010.04 962.762C2011.06 966.671 2010.63 970.705 2008.54 974.19C2006 978.429 2002.56 980.351 1997.89 981.501C1995.49 982.413 1993.75 982.47 1991.23 982.221C1987.1 981.811 1983.77 980.861 1981.12 977.414C1978 973.35 1977.28 967.576 1978.02 962.629C1978.94 956.502 1982.26 953.758 1987.03 950.5Z"/>
	<path transform="matrix(1.33727 0 0 1.33727 6.10352e-05 0)" d="M2600.69 432.5C2605.18 431.81 2610.08 431.187 2614.32 433.265C2618.88 435.501 2622.41 439.88 2623.72 444.768C2624.78 448.761 2624.25 452.867 2622.08 456.407C2619.59 460.485 2616.05 462.445 2611.52 463.5C2609.84 464.289 2608.71 464.407 2606.83 464.341C2602.43 464.188 2598.4 463.534 2595.36 460.009C2591.87 455.975 2590.92 450.316 2591.58 445.149C2592.4 438.73 2595.77 435.962 2600.69 432.5Z"/>
	<path transform="matrix(1.33727 0 0 1.33727 6.10352e-05 0)" d="M1856.77 432.5C1861.41 431.793 1866.21 431.202 1870.58 433.365C1875.06 435.575 1878.58 439.98 1879.84 444.791C1880.88 448.748 1880.4 452.821 1878.24 456.322C1875.71 460.432 1872.25 462.457 1867.65 463.501C1865 464.669 1862.59 464.437 1859.76 464.088C1855.87 463.608 1852.73 462.08 1850.45 458.791C1847.64 454.721 1846.96 449.059 1847.84 444.273C1848.93 438.342 1852.14 435.751 1856.77 432.5Z"/>
	<path transform="matrix(1.33727 0 0 1.33727 6.10352e-05 0)" d="M2352.39 489.499C2360.79 488.045 2369.79 488.701 2378.3 488.741C2378.93 489.8 2379.46 490.711 2379.72 491.931C2380.9 497.42 2380.93 596.647 2379.78 599.973C2379.44 600.958 2378.69 601.748 2378.15 602.635C2369.52 603.382 2360.44 602.852 2351.79 602.507C2351.98 602.193 2352.19 601.888 2352.37 601.563C2354.03 598.47 2354.42 495.787 2352.39 489.499Z"/>
	<path transform="matrix(1.33727 0 0 1.33727 6.10352e-05 0)" d="M1979.25 1007.5C1987.71 1006.07 1996.72 1006.7 2005.27 1006.74C2005.89 1007.8 2006.41 1008.72 2006.67 1009.93C2007.92 1015.79 2007.99 1114.15 2006.74 1117.97C2006.42 1118.95 2005.69 1119.74 2005.16 1120.62C1996.5 1121.42 1987.37 1120.83 1978.69 1120.53C1978.88 1120.21 1979.09 1119.91 1979.27 1119.58C1980.89 1116.55 1981.39 1013.77 1979.25 1007.5Z"/>
	<path transform="matrix(1.33727 0 0 1.33727 6.10352e-05 0)" d="M2592.68 489.499C2601.39 488.001 2610.72 488.691 2619.54 488.741C2619.87 489.327 2620.1 489.656 2620.32 490.269C2621.94 494.994 2621.42 588.521 2620.68 598.038C2620.55 599.747 2620.04 600.799 2619.22 602.266C2613 604.507 2599.94 602.791 2593.25 602.386C2595.07 592.849 2595.26 495.47 2592.68 489.499Z"/>
	<path transform="matrix(1.33727 0 0 1.33727 6.10352e-05 0)" d="M1848.78 489.496C1857.37 487.996 1866.61 488.691 1875.32 488.741C1875.77 489.55 1876.07 489.993 1876.35 490.836C1878.29 496.704 1877.76 586.371 1876.75 598.092C1876.6 599.822 1876.06 600.914 1875.23 602.399C1868.54 604.627 1855.88 602.754 1848.59 602.494C1848.78 602.127 1848.98 601.768 1849.15 601.393C1851.17 596.969 1851.17 495.189 1848.78 489.496Z"/>
	<path transform="matrix(1.33727 0 0 1.33727 6.10352e-05 0)" d="M1374.01 444.46C1382.47 443.496 1391.77 444.139 1400.31 444.13L1400.31 602.719C1391.57 602.817 1382.73 603.191 1374.01 602.364L1374.01 444.46Z"/>
	<path transform="matrix(1.33727 0 0 1.33727 6.10352e-05 0)" d="M1843.43 1005.5C1852.95 1004.4 1861.52 1004.21 1869.92 1009.41C1870.63 1016.14 1866.94 1031.48 1863.55 1037.42C1861.74 1034.89 1857.21 1033.38 1854.29 1032.67C1849.06 1031.4 1843.18 1032.49 1838.64 1035.37C1816.21 1049.64 1828.16 1097.59 1824.04 1119.59C1821.23 1121.23 1818.92 1120.81 1815.75 1120.82C1809.47 1120.89 1803.23 1120.7 1796.95 1120.42C1799.02 1111.05 1798.82 1023.41 1797.6 1011.38C1797.42 1009.66 1796.81 1008.2 1795.9 1006.75L1819.05 1006.75C1822.14 1011.56 1822.24 1015.78 1821.29 1021.28C1824.12 1019.68 1826.58 1016.76 1829.11 1014.66C1833.6 1010.93 1838.27 1008.19 1843.43 1005.5Z"/>
	<path transform="matrix(1.33727 0 0 1.33727 6.10352e-05 0)" d="M1934.65 1005.5C1944.58 1004.36 1952.42 1004.49 1961.38 1009.31C1961.38 1017.55 1958.5 1030.22 1955.02 1037.66C1953.84 1035.98 1951.91 1034.98 1950.05 1034.14C1944.43 1031.6 1938.1 1031.38 1932.45 1033.95C1905.49 1046.25 1921.45 1101.62 1915.1 1119.91C1912.45 1121.39 1908.72 1120.86 1905.75 1120.82C1899.89 1120.9 1894.1 1120.69 1888.25 1120.39C1890.89 1106.98 1889.06 1082.59 1889.07 1068.28C1889.09 1049.68 1890.49 1029.92 1888.82 1011.44C1888.66 1009.6 1888.07 1008.34 1887.22 1006.75L1909.94 1006.75C1910.62 1007.59 1911.2 1008.44 1911.69 1009.42C1913.66 1013.4 1913.63 1017.26 1912.32 1021.43C1920.21 1016.58 1925.82 1010.15 1934.65 1005.5Z"/>
	<path transform="matrix(1.33727 0 0 1.33727 6.10352e-05 0)" d="M2307.72 487.499C2317.75 486.465 2325.3 486.427 2334.4 491.316C2334.54 499.632 2331.51 511.816 2328.18 519.424C2325.05 516.429 2320.53 514.763 2316.27 514.247C2311.17 513.63 2305.86 514.822 2301.9 518.216C2282.15 535.168 2290.5 578.901 2288.71 601.928C2286.23 603.46 2281.65 602.829 2278.75 602.821C2272.91 602.894 2267.14 602.697 2261.31 602.39C2263.95 588.52 2262.1 564.581 2262.11 549.782C2262.13 531.309 2263.51 511.787 2261.86 493.436C2261.7 491.608 2261.12 490.345 2260.28 488.746L2282.99 488.746C2286.5 493.723 2286.57 497.413 2285.72 503.363C2292.58 499.407 2297.62 492.797 2307.72 487.499Z"/>
	<path transform="matrix(1.33727 0 0 1.33727 6.10352e-05 0)" d="M2532.74 472.499C2535.15 472.217 2538.53 471.447 2540.86 472.185C2542.64 472.748 2543.96 474.412 2544.65 476.106C2545.9 479.145 2544.04 486.044 2542.56 488.79L2573.3 488.746C2573.84 489.684 2574.32 490.475 2574.54 491.555C2575.67 497.009 2575.89 506.986 2573.25 511.838L2542.82 511.838C2549.32 522.725 2538.54 560.459 2548.19 574.595C2552.45 580.849 2560.01 581.22 2566.83 582.387C2566.54 587.2 2566.06 592.547 2563.09 596.502C2563.59 598.712 2563.62 599.189 2563 601.356C2562.11 601.999 2561.29 602.605 2560.22 602.942C2553.61 605.026 2541.23 602.22 2535.16 599.008C2506.52 583.845 2523.71 533.831 2516.56 512.633C2516.48 512.408 2516.39 512.188 2516.31 511.966L2505.17 511.402C2506.25 505.635 2506.49 499.38 2504.96 493.682C2510.32 491.599 2529.92 476.973 2532.74 472.499Z"/>
	<path transform="matrix(1.33727 0 0 1.33727 6.10352e-05 0)" d="M1564.2 428.875C1572.87 428.556 1581.64 428.769 1590.32 428.737C1594.5 436.512 1592.13 524.787 1592.06 539.668C1592 550.59 1590.48 563.871 1593.07 574.399C1594.53 580.372 1598.14 580.891 1602.91 583.709C1603.17 583.865 1603.43 584.031 1603.69 584.193C1603.4 589.572 1603.11 595.072 1599.84 599.573L1599.95 601.065L1598.49 602.586C1591.76 604.316 1585.36 602.554 1579.29 599.558C1572.86 596.385 1569.91 590.64 1568.05 583.997C1563.05 566.142 1565.31 544.295 1565.37 525.821L1565.55 457.188C1565.56 448.546 1566.9 437.044 1564.2 428.875Z"/>
	<path transform="matrix(1.33727 0 0 1.33727 6.10352e-05 0)" d="M2654.51 1007.5C2663.4 1006.02 2672.87 1006.7 2681.87 1006.75C2682.14 1007.03 2682.42 1007.3 2682.68 1007.59C2686.62 1011.94 2711.96 1079 2711.73 1084.85C2712.17 1084.43 2713.01 1083.68 2713.41 1083.14C2715.99 1079.61 2740.45 1015.98 2741.69 1009.93C2741.93 1008.76 2741.73 1007.9 2741.52 1006.75L2767.83 1006.75C2767.94 1007.35 2768.13 1008.17 2768.11 1008.81C2767.99 1014.22 2761.41 1029.55 2757.66 1033.49C2757.72 1033.76 2757.82 1034.02 2757.84 1034.3C2758.26 1038.69 2727.83 1115.98 2723.72 1120.75Q2711.01 1121.04 2698.31 1120.57C2698.35 1120.33 2698.42 1120.1 2698.43 1119.86C2698.64 1116.78 2658.95 1013.16 2654.51 1007.5Z"/>
	<path transform="matrix(1.33727 0 0 1.33727 6.10352e-05 0)" d="M1767.23 487.497C1776.62 486.288 1786.7 486.756 1796 488.376C1804.36 489.831 1818.2 493.21 1823.41 500.545C1823.43 500.798 1823.48 501.049 1823.48 501.302C1823.32 506.156 1816.14 517.72 1812.51 520.681C1807.35 513.769 1792.03 511.05 1784.19 509.904C1777.03 508.856 1771.27 509.099 1765.51 513.879C1763.38 515.651 1763.01 516.687 1762.81 519.37C1768.69 530.171 1803.57 535.652 1815.39 545.076C1821.9 550.262 1826.68 557.477 1827.42 565.912C1828.11 573.94 1825.13 584.173 1819.71 590.194C1810.81 600.085 1797.01 603.692 1784.23 604.661C1762.62 606.328 1748.26 598.756 1729.87 589.099C1730.14 588.885 1730.41 588.679 1730.67 588.456C1734.42 585.217 1740.28 573.478 1740.46 568.786C1755.51 573.98 1763.56 582.757 1781.46 582.299C1787.37 582.148 1794.62 581.029 1798.71 576.354C1800.82 573.93 1800.99 571.909 1800.7 568.824C1795.45 558.037 1768.76 553.529 1757.86 548.288C1749.22 544.129 1740.96 537.896 1737.91 528.395C1735.69 521.475 1736.45 512.543 1739.86 506.132C1745.28 495.934 1756.88 490.986 1767.23 487.497Z"/>
	<path transform="matrix(1.33727 0 0 1.33727 6.10352e-05 0)" d="M2436.41 487.499C2445.04 486.354 2454.41 486.697 2462.99 487.992C2472.06 489.359 2486.8 492.602 2492.57 500.445C2492.61 500.733 2492.68 501.019 2492.68 501.31C2492.66 506.28 2485.54 517.516 2482.08 520.776C2474.62 513.063 2460.01 510.298 2449.84 509.459C2444.53 509.022 2438.78 510.04 2434.8 513.844C2432.89 515.664 2432.67 516.695 2432.62 519.246C2439.11 530.857 2472.18 535.368 2484.51 544.983C2491.08 550.113 2496.34 557.408 2497.13 565.916C2497.92 574.44 2494.24 583.798 2488.72 590.211C2479.94 600.425 2465.98 603.786 2453.13 604.677C2431.8 606.284 2417.22 598.817 2399.23 588.922C2399.65 588.6 2400.14 588.263 2400.52 587.875C2404.14 584.177 2409.67 573.663 2409.54 568.668C2425.56 573.761 2428.51 581.812 2449.77 582.086C2456.83 582.177 2464.07 581.054 2469.01 575.394C2470.72 573.441 2470.72 572.167 2470.53 569.705C2464.1 558.103 2441.78 554.667 2430.01 549.508C2420.53 545.35 2410.95 538.818 2407.32 528.645C2404.85 521.753 2405.69 513.187 2408.98 506.644C2414.31 496.056 2425.84 491.13 2436.41 487.499Z"/>
	<path transform="matrix(1.33727 0 0 1.33727 6.10352e-05 0)" d="M2410.83 1007.5C2419.41 1005.99 2428.66 1006.7 2437.36 1006.75C2442.83 1017.31 2433.69 1068.11 2441.98 1086.16C2444.61 1091.89 2449.15 1096.19 2455.18 1098.14C2463.79 1100.93 2474.65 1099.3 2482.59 1095.15C2486.06 1093.33 2490.75 1090.39 2492 1086.5C2492.16 1086.08 2492.33 1085.66 2492.47 1085.23C2494.71 1078.48 2494.26 1011.46 2491.62 1006.76L2518.4 1006.75C2518.7 1007.3 2519.2 1008.15 2519.41 1008.79C2521.27 1014.46 2521.08 1033.42 2518.21 1038.5C2518.76 1039.48 2519.01 1039.79 2519.34 1040.78C2521.47 1047.06 2520.59 1107 2519.81 1116.56C2519.67 1118.27 2519.17 1119.35 2518.36 1120.82C2513.48 1120.93 2505.33 1122.1 2500.84 1120.69C2498.2 1119.86 2497.89 1116.86 2497 1114.53C2494.55 1113.17 2481.27 1119.69 2477.53 1120.72C2463.57 1124.55 2445.36 1123.91 2432.64 1116.45C2405.49 1100.52 2412.15 1053.38 2412.05 1026.45C2412.02 1020.64 2412.62 1013.77 2411.04 1008.16C2410.98 1007.94 2410.9 1007.72 2410.83 1007.5Z"/>
	<path transform="matrix(1.33727 0 0 1.33727 6.10352e-05 0)" d="M2830.53 487.5C2843.73 486.505 2857.47 486.281 2869.78 491.903C2880.18 496.653 2887.24 505.307 2891.13 515.94C2893.19 521.579 2894.35 527.473 2894.93 533.437C2896 544.353 2897.49 595.418 2894.06 602.804L2867.25 602.796C2868.98 599.291 2868.89 596.524 2868.97 592.677C2869.28 576.687 2872.65 528.624 2861.34 517.503C2854.78 511.054 2846.88 510.582 2838.24 510.444C2826.96 511.262 2818.56 515.848 2809.14 521.638C2809.28 521.989 2809.46 522.326 2809.55 522.691C2811.2 529.017 2810.42 589.068 2809.65 598.565C2809.51 600.272 2809.01 601.346 2808.2 602.821C2799.52 602.862 2790.88 602.951 2782.21 602.384C2784.86 589.137 2783.03 566.873 2783.05 552.874C2783.07 533.412 2784.47 512.827 2782.81 493.466C2782.65 491.616 2782.08 490.364 2781.23 488.746L2803.1 488.746C2803.27 488.888 2803.46 489.01 2803.61 489.173C2805.51 491.215 2806.08 494.889 2805.95 497.574C2813.81 493.365 2822.04 490.214 2830.53 487.5Z"/>
	<path transform="matrix(1.33727 0 0 1.33727 6.10352e-05 0)" d="M2250.08 746.499C2263.75 745.318 2278.88 745.292 2291.31 751.934C2302.12 757.704 2308.64 767.635 2311.94 779.229C2315.13 790.396 2317.55 854.156 2313.35 861.821C2304.68 861.872 2296.03 861.986 2287.36 861.429C2288.11 858.445 2288.2 855.486 2288.28 852.426C2288.66 837.113 2290.04 803.005 2286.9 789.162C2285.81 784.319 2283.74 779.531 2280.15 776.013C2273.82 769.798 2265.55 769.403 2257.25 769.473C2246.01 770.531 2237.27 774.375 2228.84 781.862C2229.6 794.335 2231.24 853.674 2227.56 861.802C2218.63 861.87 2209.75 861.872 2200.82 861.499C2201.35 860.646 2201.81 859.951 2202 858.945C2204.1 847.563 2202.4 829.549 2202.41 817.652C2202.41 796.027 2203.93 773.372 2202.13 751.903C2201.98 750.209 2201.46 749.184 2200.62 747.746L2222.91 747.746C2223.1 747.927 2223.35 748.067 2223.5 748.29C2225 750.555 2225.31 753.936 2225.18 756.561C2233.37 752.569 2241.45 749.36 2250.08 746.499Z"/>
	<path transform="matrix(1.33727 0 0 1.33727 6.10352e-05 0)" d="M2177.29 442.499C2185.69 441.658 2194.3 442.527 2202.56 444.094C2213.81 446.229 2234.05 452.223 2240.87 462.204C2240.89 462.496 2240.95 462.787 2240.94 463.079C2240.65 467.631 2231.09 481.13 2227.44 483.947C2227.2 483.502 2226.83 482.784 2226.49 482.355C2219.88 474.044 2206.49 469.355 2196.43 467.604C2179.51 464.662 2161.96 466.573 2147.69 476.746Q2146.56 477.545 2145.47 478.4Q2144.37 479.255 2143.33 480.165Q2142.28 481.074 2141.28 482.035Q2140.28 482.995 2139.33 484.006Q2138.38 485.016 2137.48 486.072Q2136.59 487.129 2135.74 488.23Q2134.9 489.331 2134.11 490.473Q2133.33 491.615 2132.6 492.795Q2131.87 493.975 2131.2 495.19Q2130.54 496.406 2129.93 497.653Q2129.33 498.901 2128.78 500.177Q2128.24 501.454 2127.77 502.756Q2127.29 504.058 2126.88 505.383Q2126.47 506.707 2126.13 508.051Q2125.78 509.394 2125.51 510.754Q2125.24 512.113 2125.03 513.484Q2124.82 514.915 2124.68 516.355Q2124.54 517.795 2124.47 519.24Q2124.4 520.685 2124.41 522.131Q2124.41 523.578 2124.49 525.022Q2124.56 526.467 2124.71 527.906Q2124.85 529.345 2125.07 530.776Q2125.29 532.206 2125.58 533.623Q2125.86 535.041 2126.22 536.443Q2126.58 537.844 2127 539.227Q2127.43 540.609 2127.93 541.969Q2128.42 543.328 2128.98 544.662Q2129.54 545.995 2130.17 547.299Q2130.79 548.603 2131.48 549.875Q2132.17 551.146 2132.92 552.382Q2133.68 553.618 2134.49 554.815Q2135.3 556.012 2136.17 557.168Q2137.05 558.332 2137.98 559.451Q2138.92 560.57 2139.91 561.641Q2140.9 562.712 2141.94 563.733Q2142.98 564.755 2144.07 565.723Q2145.17 566.692 2146.3 567.605Q2147.44 568.519 2148.62 569.375Q2149.8 570.231 2151.02 571.028Q2152.25 571.825 2153.51 572.56Q2154.77 573.296 2156.06 573.968Q2157.35 574.641 2158.68 575.248Q2160.01 575.856 2161.36 576.397Q2162.71 576.939 2164.09 577.413Q2165.47 577.887 2166.88 578.292Q2168.28 578.698 2169.7 579.033Q2171.12 579.369 2172.55 579.634Q2173.98 579.899 2175.43 580.093C2188.1 581.803 2208.15 579.553 2218.53 571.497C2223.02 569.781 2228.72 567.729 2230.98 563.203C2231.28 563.432 2231.59 563.651 2231.88 563.89C2236.09 567.317 2241.8 578.535 2242.17 583.776C2241.87 584.497 2242 584.271 2241.39 585.114C2233.77 595.697 2209.55 601.965 2197.48 603.825C2173.75 607.483 2147.71 602.158 2128.29 587.734Q2126.75 586.589 2125.26 585.37Q2123.77 584.151 2122.35 582.86Q2120.93 581.569 2119.57 580.209Q2118.21 578.85 2116.92 577.425Q2115.63 576 2114.41 574.514Q2113.19 573.027 2112.05 571.482Q2110.91 569.937 2109.84 568.338Q2108.78 566.739 2107.79 565.089Q2106.8 563.439 2105.9 561.743Q2105 560.046 2104.18 558.307Q2103.36 556.568 2102.63 554.791Q2101.9 553.014 2101.25 551.203Q2100.61 549.392 2100.06 547.552Q2099.5 545.711 2099.04 543.846Q2098.58 541.98 2098.21 540.094Q2097.84 538.208 2097.56 536.306C2094.62 514.819 2100.34 491.773 2113.75 474.645C2129.76 454.202 2152.25 445.611 2177.29 442.499Z"/>
	<path transform="matrix(1.33727 0 0 1.33727 6.10352e-05 0)" d="M2121.32 746.5C2134.97 745.315 2147.96 745.652 2159.7 753.629C2169.53 760.312 2175.43 770.971 2177.5 782.529C2179.09 791.376 2179.78 811.613 2174.71 818.982L2100.96 818.971C2107.15 825.192 2108.96 833.588 2117.78 837.891C2132 844.823 2155.48 837.719 2169.66 832.623L2170.69 833.498C2173.15 838.12 2175.97 848.155 2174.79 853.197C2171.86 855.905 2167.48 857.456 2163.73 858.695C2144.58 865.02 2118.17 866.919 2099.91 857.346C2088.38 851.294 2080.67 840.415 2077.06 828.059C2072.07 810.972 2072.81 791.333 2081.5 775.562C2090.49 759.262 2103.97 751.391 2121.32 746.5ZM2124.32 769.499C2114.22 772.983 2108.52 778.035 2103.85 787.652C2102.43 790.588 2101.23 793.642 2099.47 796.402Q2113.61 796.778 2127.75 796.621L2151.7 796.621C2153.6 792.414 2153.53 787.137 2151.98 782.781C2149.96 777.096 2144.77 772.945 2139.31 770.669C2134.43 768.63 2129.46 768.629 2124.32 769.499Z"/>
	<path transform="matrix(1.33727 0 0 1.33727 6.10352e-05 0)" d="M2591.13 1005.5C2605.14 1004.3 2618.5 1004.72 2630.33 1013.28C2640.13 1020.37 2645.54 1031.24 2647.46 1043C2648.89 1051.75 2649.4 1070.69 2644.16 1077.97L2570.03 1077.98C2577.23 1083.9 2577.38 1091.98 2587.43 1096.56C2603.01 1103.67 2624.71 1096.86 2639.88 1091.5C2640.05 1091.74 2640.24 1091.97 2640.39 1092.22C2643.2 1096.89 2645.34 1106.98 2644.24 1112.22C2641.29 1115.15 2636.41 1116.81 2632.49 1118.03C2613.37 1123.95 2587.6 1126 2569.49 1116.3C2558.09 1110.2 2550.57 1099.44 2546.89 1087.21C2541.71 1070 2542.6 1049.92 2551.45 1034.06C2560.46 1017.9 2573.82 1010.26 2591.13 1005.5ZM2594.04 1028.5C2584.32 1031.82 2579.23 1035.75 2574.59 1045.09C2572.94 1048.41 2572.17 1052.77 2570.01 1055.65L2597.75 1055.62L2621.68 1055.64C2623.58 1051.79 2623.18 1045.72 2621.7 1041.76C2619.57 1036.06 2614.36 1031.95 2608.89 1029.63C2604.1 1027.59 2599.08 1027.66 2594.04 1028.5Z"/>
	<path transform="matrix(1.33727 0 0 1.33727 6.10352e-05 0)" d="M1662.9 487.498C1675.68 486.425 1688 486.503 1699.33 493.365C1709.28 499.397 1715.65 509.129 1718.39 520.326C1720.82 530.201 1721.77 551.114 1716.31 559.968L1641.72 559.992C1648.31 565.602 1649.4 573.365 1658.03 577.938C1673.67 586.229 1696.35 578.751 1711.86 573.496C1714.8 578.278 1717.33 588.749 1716.14 594.157C1713.3 597.144 1708.31 598.802 1704.44 600.004C1685.28 605.949 1659.62 607.96 1641.43 598.34C1629.78 592.179 1622.25 581.149 1618.6 568.69C1613.61 551.672 1614.57 531.69 1623.34 516.063C1632.36 499.974 1645.63 492.299 1662.9 487.498ZM1665.84 510.496C1656.27 513.809 1651.05 517.835 1646.48 527.069C1644.75 530.575 1643.89 534.625 1641.38 537.667L1669.75 537.621L1693.53 537.697C1695.32 532.976 1694.9 526.991 1692.86 522.372C1690.45 516.923 1685.1 512.991 1679.57 511.113C1675.08 509.588 1670.46 509.753 1665.84 510.496Z"/>
	<path transform="matrix(1.33727 0 0 1.33727 6.10352e-05 0)" d="M1938.69 487.498C1953.1 485.578 1972.36 486.325 1985.35 493.572C2015.9 510.616 1997.72 552.955 2005.47 576.759C2006.66 580.426 2011.95 582.07 2015.1 583.802C2016.61 588.005 2013.35 597.134 2012.01 601.574C2010.33 602.517 2008.59 603.512 2006.69 603.887C2000.55 605.093 1991.8 600.694 1987.21 596.639C1985.32 594.972 1983.88 592.545 1981.76 591.226C1981.52 591.081 1981.27 590.977 1981.02 590.853C1979.38 592.239 1977.67 593.576 1975.84 594.719C1959.23 605.124 1941.79 606.098 1923.14 601.885C1914.74 596.265 1905.87 589.644 1903.13 579.338C1900.78 570.515 1903.22 559.643 1907.73 551.872C1921.99 527.271 1952.68 531.339 1975.35 525.319C1975.79 523.783 1975.79 523.337 1975.46 521.738C1974.73 518.287 1972.97 515.647 1969.88 513.858C1956.14 505.896 1933.76 512.824 1919.79 516.83C1919.85 516.579 1919.94 516.335 1919.97 516.078C1920.57 510.945 1914.95 499.453 1911.61 495.681C1920.67 492.813 1929.45 489.811 1938.69 487.498ZM1971.51 548.5C1959.54 549.535 1940.44 551.294 1932 561.002C1929.9 563.427 1928.94 566.487 1929.23 569.684C1929.6 573.734 1931.36 576.325 1934.12 579.152C1944.64 582.407 1954.6 581.362 1964.39 576.16C1968.62 573.914 1973.22 570.986 1976.16 567.169C1978.36 562.396 1977.94 554.746 1976.49 549.788L1975.32 548.468L1971.51 548.5Z"/>
	<path transform="matrix(1.33727 0 0 1.33727 6.10352e-05 0)" d="M2955.31 487.499C2965.4 486.208 2977.18 486.316 2987.09 488.45C3024.93 496.598 3020.81 528.927 3020.58 559.513C3020.54 564.432 3019.78 571.058 3021.45 575.647C3023.4 581.027 3029.23 580.107 3031.48 584.182C3033.12 587.154 3029.63 597.924 3028.59 601.461C3026.69 602.557 3024.85 603.546 3022.64 603.829C3011.79 605.214 3005.82 596.928 2998.34 591.436C2998.04 591.21 2997.72 590.994 2997.41 590.772C2995.67 592.662 2993.47 594.036 2991.28 595.36C2974.66 605.421 2957.29 606.093 2938.9 601.5C2935.26 598.675 2930.95 596.309 2927.64 593.131C2922.06 587.769 2919.52 580.534 2919.21 572.946C2918.81 563.093 2921.49 553.549 2928.33 546.251C2943.42 530.132 2971.54 526.653 2992.59 526.028C2992.62 525.223 2992.59 524.448 2992.47 523.65C2991.88 519.517 2989.71 517.35 2986.51 514.892C2985.57 513.737 2986.01 514.07 2984.56 513.254C2971.35 505.799 2949.73 513.029 2936.31 516.878C2936.36 516.646 2936.45 516.419 2936.47 516.183C2937.01 511.342 2931.59 499.136 2928.51 495.597C2937.55 493.069 2946.05 489.534 2955.31 487.499ZM2988.27 548.5C2976.07 549.51 2956.73 551.422 2948.17 561.282C2946.08 563.693 2945.13 566.489 2945.55 569.663C2946.12 573.871 2948.1 576.681 2951.25 579.368C2961.64 582.566 2972.77 580.724 2982.3 575.556C2985.56 573.786 2991.36 570.345 2992.71 566.746C2994.2 561.242 2995.04 555.069 2993.18 549.586C2991.18 548.137 2990.67 548.428 2988.27 548.5Z"/>
	<path transform="matrix(1.33727 0 0 1.33727 6.10352e-05 0)" d="M2682.57 487.499C2696.8 485.628 2715.54 486.334 2728.51 493.176C2752.87 506.031 2747.73 538.775 2747.94 561.728C2747.98 566.132 2747.58 571.875 2749.1 575.992C2750.05 578.581 2751.37 579.555 2753.81 580.713C2755.94 581.723 2757.46 582.72 2759.22 584.281C2760.02 589.146 2757.37 596.745 2755.87 601.495C2753.25 603.158 2751.08 604.38 2747.89 604.2C2741.64 603.848 2733.06 599.019 2728.94 594.471C2727.93 593.349 2727.04 592.236 2725.77 591.393C2725.49 591.208 2725.2 591.034 2724.92 590.854Q2722.34 593.092 2719.44 594.9C2702.84 605.062 2685.74 606.127 2667.14 601.918C2663.07 599.151 2658.68 596.349 2655.09 592.978C2648.91 587.181 2646.63 580.293 2646.5 571.957C2646.35 561.907 2649.44 552.637 2656.57 545.411C2671.59 530.174 2699.21 526.412 2719.77 526.092C2719.8 524.527 2719.67 523.148 2719.21 521.654Q2719 520.974 2718.72 520.318Q2718.44 519.661 2718.1 519.036Q2717.76 518.411 2717.35 517.823Q2716.95 517.234 2716.49 516.689Q2716.04 516.143 2715.52 515.646Q2715.01 515.149 2714.46 514.704Q2713.9 514.26 2713.3 513.873Q2712.7 513.486 2712.07 513.16C2698.45 506.098 2677.28 512.952 2663.61 516.834C2663.84 516.043 2663.98 515.776 2663.9 514.845C2663.48 509.318 2659.19 499.803 2655.48 495.799C2664.26 492.502 2673.4 489.505 2682.57 487.499ZM2715.42 548.5C2703.49 549.528 2683.21 551.463 2675.27 561.713C2673.23 564.345 2672.64 567.605 2673.23 570.844C2673.87 574.407 2675.61 576.724 2678.14 579.186C2688.36 582.487 2699.17 580.902 2708.74 576.054C2712 574.398 2719 570.295 2720.23 566.754C2720.91 560.883 2722.17 555.168 2720.31 549.418C2718.34 548.092 2717.73 548.392 2715.42 548.5Z"/>
	<path transform="matrix(1.33727 0 0 1.33727 6.10352e-05 0)" d="M1697.36 1005.49C1705.93 1004.41 1715.85 1004.4 1724.38 1005.61C1767.11 1011.63 1762.87 1043.94 1762.57 1077.4C1762.52 1082.64 1762.02 1090.13 1764.42 1094.93C1766.17 1098.44 1771.28 1100.15 1773.8 1103.45C1774.61 1108.14 1772.45 1115.39 1770.43 1119.66C1767.56 1121.1 1765.07 1122.11 1761.8 1121.93C1755.69 1121.57 1747.64 1116.87 1743.63 1112.48C1742.62 1111.39 1741.76 1110.33 1740.54 1109.46C1740.25 1109.25 1739.95 1109.06 1739.66 1108.86C1737.86 1110.53 1735.74 1111.9 1733.65 1113.18C1717.04 1123.28 1699.74 1124.23 1681.27 1119.58C1677.65 1116.96 1673.64 1114.58 1670.27 1111.64C1664.58 1106.69 1661.6 1098.86 1661.31 1091.44C1660.9 1081.09 1663.49 1071.63 1670.67 1063.97C1685.52 1048.12 1713.93 1044.59 1734.64 1044.04C1734.66 1043.22 1734.62 1042.41 1734.51 1041.59C1733.95 1037.43 1731.72 1035.27 1728.51 1032.8C1727.69 1031.79 1728.09 1032.12 1726.7 1031.31C1713.75 1023.7 1691.64 1031.08 1678.41 1034.88C1678.46 1034.64 1678.53 1034.4 1678.55 1034.16C1678.99 1028.94 1673.84 1017.68 1670.73 1013.54C1679.7 1011.15 1688.19 1007.54 1697.36 1005.49ZM1730.31 1066.5C1718.23 1067.51 1698.52 1069.45 1690.18 1079.39C1688.36 1081.57 1687.34 1084.23 1687.6 1087.09C1688 1091.45 1690 1094.52 1693.22 1097.32C1703.38 1100.5 1714.11 1098.83 1723.56 1094C1726.88 1092.3 1733.66 1088.37 1734.94 1084.73C1735.92 1079.07 1737.04 1073.4 1735.34 1067.77L1734.15 1066.52L1730.31 1066.5Z"/>
	<path transform="matrix(1.33727 0 0 1.33727 6.10352e-05 0)" d="M2241.16 962.5C2248.25 961.643 2256.16 961.987 2263.28 962.49C2276.78 975.488 2288.56 992.637 2300.48 1007.2C2318.11 1028.74 2337.22 1050.02 2353.59 1072.46C2354.62 1073.87 2354.84 1074.76 2355.05 1076.45C2355.4 1075.79 2355.56 1075.52 2355.85 1074.78C2358.39 1068.4 2358.36 968.637 2355.44 962.153L2379.51 962.159C2380.16 963.534 2380.64 964.696 2380.79 966.23C2381.63 974.98 2381.04 984.282 2381.04 993.096L2381.06 1044.85L2381.04 1092.48C2381.03 1100.55 2381.64 1109.17 2380.81 1117.16C2380.65 1118.7 2380.09 1119.45 2379.17 1120.62C2372.47 1121.25 2365.35 1120.8 2358.61 1120.82C2358.51 1120.36 2358.49 1119.87 2358.32 1119.43C2356.79 1115.41 2277.22 1018.71 2268.72 1009.39C2267.33 1007.87 2265.73 1006.8 2263.91 1005.84C2264.35 1006.69 2264.73 1007.53 2264.99 1008.45C2267 1015.42 2266.48 1103.82 2265.54 1116.52C2265.42 1118.24 2264.93 1119.32 2264.14 1120.82C2256.12 1120.88 2248.16 1120.88 2240.15 1120.44C2243.21 1113.42 2242.43 976.036 2241.16 962.5Z"/>
	<path transform="matrix(1.33727 0 0 1.33727 6.10352e-05 0)" d="M2082.52 1005.5Q2083.48 1005.4 2084.44 1005.34C2103.8 1004 2121.29 1006.91 2136.29 1020.07C2147.85 1030.2 2154.19 1044.02 2155.1 1059.29C2156.03 1075.02 2151.12 1090.36 2140.48 1102.08C2130.27 1113.33 2115.3 1121.08 2100.04 1121.69C2087.11 1124.41 2071.29 1121.3 2059.76 1114.95Q2058.53 1114.29 2057.34 1113.57Q2056.15 1112.84 2055 1112.06Q2053.85 1111.28 2052.74 1110.44Q2051.63 1109.6 2050.56 1108.71Q2049.49 1107.81 2048.47 1106.87Q2047.45 1105.92 2046.48 1104.92Q2045.51 1103.93 2044.59 1102.88Q2043.67 1101.84 2042.81 1100.74Q2041.94 1099.65 2041.13 1098.52Q2040.32 1097.39 2039.57 1096.22Q2038.82 1095.04 2038.13 1093.84Q2037.44 1092.63 2036.81 1091.38Q2036.18 1090.14 2035.62 1088.87Q2035.05 1087.6 2034.55 1086.3Q2034.05 1085 2033.62 1083.68Q2033.19 1082.35 2032.82 1081.01Q2032.43 1079.59 2032.11 1078.15Q2031.8 1076.72 2031.55 1075.27Q2031.3 1073.82 2031.13 1072.35Q2030.95 1070.89 2030.85 1069.43Q2030.75 1067.96 2030.72 1066.49Q2030.68 1065.01 2030.73 1063.54Q2030.77 1062.07 2030.88 1060.61Q2031 1059.14 2031.18 1057.68Q2031.37 1056.22 2031.63 1054.77Q2031.89 1053.32 2032.22 1051.89Q2032.55 1050.45 2032.95 1049.04Q2033.35 1047.62 2033.82 1046.23Q2034.28 1044.83 2034.82 1043.46Q2035.36 1042.09 2035.96 1040.75Q2036.57 1039.41 2037.24 1038.1Q2037.91 1036.79 2038.64 1035.51C2048.49 1018.5 2064.21 1010.38 2082.52 1005.5ZM2089.55 1028.5C2079.25 1029.89 2071.28 1033.38 2064.83 1041.8Q2064.29 1042.52 2063.78 1043.26Q2063.28 1044 2062.81 1044.76Q2062.34 1045.53 2061.91 1046.32Q2061.48 1047.1 2061.09 1047.91Q2060.69 1048.72 2060.34 1049.55Q2059.99 1050.37 2059.68 1051.22Q2059.38 1052.06 2059.11 1052.92Q2058.84 1053.77 2058.62 1054.64Q2058.39 1055.51 2058.21 1056.39Q2058.03 1057.27 2057.9 1058.16Q2057.76 1059.05 2057.67 1059.94Q2057.57 1060.83 2057.53 1061.73Q2057.48 1062.62 2057.47 1063.52Q2057.47 1064.42 2057.51 1065.32Q2057.55 1066.21 2057.64 1067.11Q2057.72 1068 2057.85 1068.89Q2057.96 1069.72 2058.11 1070.55Q2058.26 1071.38 2058.45 1072.2Q2058.64 1073.02 2058.87 1073.83Q2059.1 1074.64 2059.37 1075.44Q2059.64 1076.24 2059.95 1077.02Q2060.26 1077.8 2060.61 1078.57Q2060.95 1079.34 2061.34 1080.09Q2061.72 1080.83 2062.14 1081.56Q2062.56 1082.29 2063.02 1083Q2063.48 1083.71 2063.97 1084.39Q2064.46 1085.08 2064.98 1085.74Q2065.51 1086.39 2066.06 1087.03Q2066.62 1087.66 2067.2 1088.26Q2067.79 1088.87 2068.4 1089.44Q2069.02 1090.02 2069.66 1090.56Q2070.3 1091.11 2070.97 1091.62C2077.23 1096.35 2084.97 1098.75 2092.75 1099.17C2102.99 1098.83 2112.43 1095.76 2119.53 1088.06C2125.98 1081.06 2128.91 1071.55 2128.38 1062.13Q2128.33 1061.23 2128.24 1060.33Q2128.15 1059.43 2128.02 1058.53Q2127.88 1057.64 2127.7 1056.75Q2127.52 1055.87 2127.3 1054.99Q2127.07 1054.12 2126.8 1053.25Q2126.54 1052.39 2126.22 1051.54Q2125.91 1050.69 2125.56 1049.86Q2125.2 1049.03 2124.81 1048.22Q2124.41 1047.4 2123.98 1046.61Q2123.54 1045.82 2123.06 1045.05Q2122.59 1044.28 2122.07 1043.54Q2121.56 1042.79 2121.01 1042.08Q2120.46 1041.36 2119.87 1040.67Q2119.29 1039.98 2118.67 1039.32Q2118.05 1038.66 2117.4 1038.04Q2116.74 1037.41 2116.06 1036.82C2108.16 1030.04 2099.65 1028.71 2089.55 1028.5Z"/>
	<path transform="matrix(1.33727 0 0 1.33727 6.10352e-05 0)" d="M2828.24 1005.5Q2829.76 1005.35 2831.28 1005.27C2850.49 1004.13 2867.75 1007.41 2882.39 1020.7C2893.8 1031.06 2899.88 1044.99 2900.58 1060.32C2901.29 1076.01 2895.99 1091.32 2885.21 1102.82C2874.92 1113.79 2860.05 1121.23 2844.94 1121.71C2832.32 1124.66 2816.12 1121.09 2804.95 1114.79C2791.68 1107.31 2782.05 1095.24 2778.07 1080.51Q2777.69 1079.1 2777.38 1077.67Q2777.06 1076.24 2776.82 1074.8Q2776.58 1073.36 2776.42 1071.9Q2776.25 1070.45 2776.15 1068.99Q2776.06 1067.53 2776.03 1066.07Q2776.01 1064.61 2776.06 1063.15Q2776.11 1061.69 2776.23 1060.23Q2776.35 1058.77 2776.54 1057.32Q2776.74 1055.87 2777 1054.43Q2777.27 1053 2777.61 1051.57Q2777.94 1050.15 2778.35 1048.75Q2778.76 1047.34 2779.23 1045.96Q2779.71 1044.58 2780.25 1043.22Q2780.8 1041.86 2781.41 1040.53Q2782.02 1039.2 2782.69 1037.91Q2783.37 1036.61 2784.11 1035.35C2794.05 1018.38 2809.85 1010.22 2828.24 1005.5ZM2835 1028.5C2824.76 1029.86 2816.85 1033.15 2810.43 1041.53Q2809.88 1042.25 2809.36 1043Q2808.85 1043.75 2808.37 1044.52Q2807.9 1045.3 2807.46 1046.09Q2807.02 1046.89 2806.63 1047.71Q2806.23 1048.52 2805.88 1049.36Q2805.52 1050.2 2805.21 1051.05Q2804.89 1051.9 2804.62 1052.77Q2804.35 1053.64 2804.13 1054.52Q2803.9 1055.4 2803.72 1056.29Q2803.54 1057.18 2803.4 1058.07Q2803.26 1058.97 2803.17 1059.87Q2803.07 1060.78 2803.03 1061.68Q2802.98 1062.59 2802.98 1063.5Q2802.97 1064.41 2803.02 1065.32Q2803.06 1066.22 2803.15 1067.13Q2803.24 1068.03 2803.37 1068.93C2804.67 1078.13 2809.32 1086.7 2816.86 1092.24C2823 1096.75 2832.1 1099.44 2839.75 1099.03C2849.54 1098.49 2858.51 1095.25 2865.2 1087.83C2871.51 1080.83 2874.42 1071.25 2873.83 1061.91Q2873.77 1061 2873.67 1060.09Q2873.57 1059.19 2873.42 1058.29Q2873.27 1057.39 2873.08 1056.5Q2872.89 1055.61 2872.65 1054.73Q2872.41 1053.85 2872.13 1052.98Q2871.85 1052.11 2871.52 1051.26Q2871.2 1050.41 2870.83 1049.57Q2870.46 1048.74 2870.06 1047.92Q2869.65 1047.11 2869.2 1046.32Q2868.75 1045.52 2868.26 1044.75Q2867.77 1043.98 2867.25 1043.24Q2866.72 1042.49 2866.16 1041.78Q2865.59 1041.06 2865 1040.37Q2864.4 1039.68 2863.77 1039.03Q2863.13 1038.37 2862.47 1037.74Q2861.8 1037.12 2861.11 1036.53C2853.3 1029.95 2844.87 1028.61 2835 1028.5Z"/>
	<path transform="matrix(1.33727 0 0 1.33727 6.10352e-05 0)" d="M1515.97 495.439C1527.29 489.217 1537.27 487.004 1550.13 486.83C1550.03 494.413 1549.72 501.877 1549.13 509.44C1542.84 509.916 1537.03 511.013 1530.99 512.838C1532.59 520.401 1533.82 526.981 1532.07 534.641C1529.72 545.014 1522.82 553.604 1513.82 559.095C1494.63 570.811 1477.02 565.551 1456.96 560.678C1456.31 561.466 1455.35 562.479 1454.94 563.453C1454.39 564.776 1454.43 566.425 1454.88 567.74C1458.5 578.33 1510.62 579.026 1525.77 586.576C1532.96 590.157 1537.9 595.597 1540.43 603.272L1540.79 604.359C1541.84 612.882 1539.71 622.211 1535.34 629.584C1528.06 641.861 1514.2 649.73 1500.62 652.968C1483.2 657.122 1462.01 655.119 1446.63 645.459C1439.21 640.793 1433.42 633.905 1431.69 625.12C1429.33 613.122 1434.64 603.527 1441.26 594.064C1439.36 592.667 1437.35 591.271 1435.6 589.68C1431.14 585.617 1428.78 579.652 1428.47 573.682C1427.88 562.285 1433.9 552.123 1441.35 544.038C1440.26 540.984 1439.28 537.868 1438.6 534.694C1436.61 525.456 1438.39 515.188 1443.56 507.264C1451.4 495.244 1464.07 490.135 1477.56 487.247C1492.21 486.251 1503.09 488.109 1515.97 495.439ZM1462.76 600.729C1459.87 605.838 1456.78 611.733 1458.22 617.791C1459.17 621.788 1461.91 624.835 1465.4 626.876C1475.16 632.587 1490.4 632.359 1500.9 629.18C1502.59 628.666 1504.19 628.056 1505.78 627.284C1509.2 624.406 1513.93 620.838 1514.2 615.967C1514.32 613.901 1513.51 612.073 1512.08 610.604C1503.43 601.71 1474.61 600.786 1462.76 600.729ZM1485.11 509.436C1477.87 509.956 1471.27 510.787 1466.32 516.83Q1466.07 517.135 1465.83 517.454Q1465.6 517.772 1465.38 518.102Q1465.16 518.433 1464.96 518.774Q1464.77 519.115 1464.58 519.467Q1464.4 519.818 1464.24 520.179Q1464.08 520.54 1463.94 520.909Q1463.79 521.277 1463.67 521.653Q1463.55 522.029 1463.44 522.411Q1463.34 522.793 1463.26 523.18Q1463.18 523.566 1463.12 523.957Q1463.05 524.348 1463.01 524.741Q1462.97 525.134 1462.95 525.529Q1462.93 525.924 1462.93 526.32Q1462.94 526.715 1462.96 527.11Q1462.98 527.505 1463.02 527.898Q1463.07 528.291 1463.13 528.681C1463.87 533.253 1466.72 537.184 1470.44 539.837C1476.01 543.802 1481.87 544.056 1488.4 544.154C1494.23 543.698 1499.89 542.063 1503.96 537.616Q1504.46 537.058 1504.91 536.454Q1505.36 535.85 1505.75 535.205Q1506.13 534.561 1506.46 533.881Q1506.78 533.202 1507.03 532.495Q1507.29 531.788 1507.48 531.059Q1507.66 530.33 1507.77 529.587Q1507.89 528.844 1507.93 528.093Q1507.97 527.342 1507.94 526.591C1507.74 521.981 1505.48 517.703 1502.03 514.676C1497.2 510.429 1491.28 509.68 1485.11 509.436Z"/>
	<path transform="matrix(1.33727 0 0 1.33727 6.10352e-05 0)" d="M1505.17 962.344C1525.2 960.905 1569.62 960.827 1589.13 964.107C1601.48 966.183 1614.66 970.412 1622.06 981.245C1627.35 988.992 1628.45 999.084 1626.76 1008.16C1625.1 1017 1619.95 1024.32 1612.6 1029.33C1620.29 1032.05 1626.38 1035.99 1631.62 1042.28C1639.76 1052.06 1642.67 1064.45 1641.47 1076.97C1640.74 1084.65 1637.41 1093.72 1631.38 1098.75C1630.66 1100.82 1629.58 1102 1628.02 1103.52C1604.33 1126.51 1537.08 1121.27 1505.25 1120.64C1505.82 1067.92 1505.6 1015.07 1505.17 962.344ZM1533 1045.48C1530.19 1049.96 1531.77 1087.93 1531.83 1096.26C1547.4 1096.32 1591.49 1099.76 1603.37 1089.79C1603.72 1089.5 1604.01 1089.14 1604.33 1088.81C1608.57 1086.67 1611.46 1083.83 1612.99 1079.24C1614.87 1073.6 1614.58 1066.36 1611.85 1061.05C1608.39 1054.31 1601.56 1050.73 1594.58 1048.66C1575.61 1043.04 1552.66 1045.42 1533 1045.48ZM1531.83 986.689L1531.83 1021.22C1543.36 1021.28 1585.22 1023.88 1592.44 1015.15C1592.58 1014.97 1592.65 1014.74 1592.76 1014.54C1596.19 1012.67 1598.61 1011 1599.69 1007.06C1600.67 1003.49 1600.31 999.723 1598.32 996.561C1594.93 991.166 1587.14 988.982 1581.18 987.943C1565.44 985.194 1547.81 986.609 1531.83 986.689Z"/>
	<path transform="matrix(1.33727 0 0 1.33727 6.10352e-05 0)" d="M777.977 222.057C778.451 222.059 778.924 222.054 779.398 222.063C784.899 222.163 789.968 223.149 793.8 227.372C802.041 236.455 798.601 255.531 797.957 266.679Q799.89 266.529 801.826 266.423C811.962 265.867 828.989 263.731 836.894 271.359C840.249 274.598 841.333 278.95 841.11 283.512C840.92 287.391 839.67 291.026 836.715 293.648C827.898 301.468 808.817 297.727 798.141 296.746C798.116 312.441 798.709 328.419 799.962 344.061C832.208 367.816 869.759 387.877 897.477 417.01C909.023 429.146 917.007 443.246 921.202 459.477C930.131 494.029 927.87 539.003 927.977 574.722Q928.393 651.704 926.501 728.663C937.691 744.467 947.828 761.004 958.968 776.863C978.865 784.147 997.759 799.611 1015.64 810.893C1025.27 816.966 1035.59 822.013 1045.8 827.013Q1066.78 837.379 1088.18 846.868Q1109.57 856.357 1131.34 864.953Q1153.11 873.55 1175.22 881.239Q1197.33 888.928 1219.73 895.696C1239.95 901.738 1260.52 905.967 1280.78 911.653C1285.82 913.068 1294.03 915.056 1296.56 920.111C1298.66 924.292 1300.08 929.797 1298.56 934.342C1297.5 937.497 1295.09 939.827 1292.14 941.281C1280.81 946.875 1266.97 940.673 1255.86 937.283C1256.78 985.634 1255.95 1034.1 1256.02 1082.46C1256.05 1110.05 1259.09 1138.86 1254.85 1166.17C1250.16 1170.71 1245.06 1173.96 1238.59 1175.37C1226.82 1177.94 1213.95 1177.68 1201.95 1178.53Q1169.75 1180.86 1137.58 1183.56Q1049.94 1191.12 962.076 1195.27Q874.211 1199.41 786.25 1200.14Q716.198 1200.02 646.19 1197.54Q534.921 1193.37 423.971 1183.96C395.113 1181.5 359.898 1180.12 331.879 1174.6C325.863 1173.42 318.118 1171.43 313.25 1167.51C310.287 1165.11 310.31 1159.15 310.112 1155.59C309.245 1140.06 310.737 1124.27 310.684 1108.7C310.493 1052.25 312.279 995.739 310.516 939.313C299.409 941.815 288.822 943.689 277.371 943.807C273.767 941.389 269.708 938.683 267.489 934.85C266.14 932.519 265.571 930.085 266.463 927.476C270.477 915.726 295.359 910.029 306.18 907.1Q334.09 899.655 361.607 890.865Q389.123 882.075 416.181 871.962Q443.238 861.848 469.774 850.434Q496.309 839.02 522.26 826.332C551.103 812.169 579.212 796.143 607.481 780.86C615.27 761.329 624.194 747.141 639.237 732.322C637.837 681.463 638.493 630.787 638.609 579.93C638.673 551.273 636.83 521.591 639.493 493.092C645.943 424.067 682.033 399.696 734.896 364.517C745.663 357.352 757.325 350.382 767.222 342.074L767.795 341.583Q767.774 319.31 766.945 297.053Q762.453 297.867 757.909 298.303C747.671 299.349 736.253 298.873 728.058 291.736C725.499 289.507 723.366 286.474 723.298 282.967C723.242 280.085 724.562 277.502 726.534 275.469C735.843 265.872 755.228 266.92 767.543 267.036C766.848 257.891 765.186 247.635 766.725 238.554C768.082 230.547 771.571 226.483 777.977 222.057ZM779.549 663.798C736.635 684.464 656.305 734.946 639.884 782.002C628.872 813.56 632.99 856.604 633.212 889.908L633.291 963.101L633.211 1166.97Q663.818 1167.56 694.403 1168.87C694.513 1143.65 695.048 1118.29 693.967 1093.09C691.15 1027.44 686.763 997.85 737.359 947.68C748.36 936.771 768.289 916.357 784.545 916.705C784.784 916.711 785.024 916.726 785.263 916.737C818.918 930.196 849.321 966.943 863.548 999.914C879.135 1036.04 871.035 1070.94 868.959 1108.43C867.862 1128.23 868.091 1148.17 868.039 1168C888.519 1168.08 908.974 1167.26 929.438 1166.55C927.882 1131.6 928.845 1096.92 928.897 1061.98L928.901 897.238C928.902 868.81 932.691 808.57 925.157 783.933C918.76 763.012 900.53 743.427 884.542 728.853C858.457 705.074 827.102 684.713 795.191 669.714C790.855 667.676 784.313 663.934 779.549 663.798ZM958.767 810.411C960.096 844.691 959.377 878.699 959.322 912.978L959.252 1067.56C959.239 1099.52 958.311 1131.55 960.178 1163.48C1025.9 1162.42 1091.41 1156.57 1156.96 1152.05C1175.66 1150.75 1194.54 1148.53 1213.25 1147.84L1226.03 1145.82C1227.72 1073.55 1229.61 1000.98 1225.97 928.74C1133.96 900.272 1037.18 867.722 958.767 810.411ZM603.044 816.993Q581.938 829.016 560.364 840.178Q538.79 851.34 516.784 861.624Q494.778 871.908 472.375 881.297Q449.973 890.686 427.21 899.164C398.68 909.75 369.019 917.584 340.698 928.487C341.331 951.819 340.151 975.032 340.113 998.346L340.698 1145.79Q350.234 1146.77 359.759 1147.84L524.24 1159.28C550.42 1161.08 576.826 1162.25 602.92 1164.88C604.232 1137.04 603.132 1109.46 603.056 1081.63C602.875 1014.4 601.648 946.822 603.802 879.644C604.107 870.115 607.644 823.269 603.044 816.993ZM783.366 368.264C745.211 394.212 680.038 428.913 670.603 477.689C667.351 494.504 668.385 512.276 668.493 529.319L668.636 583.505L668.585 655.425C668.555 669.686 668.007 684.042 668.839 698.282C705.315 670.436 742.32 646.938 784.355 628.222C796.5 638.43 810.335 645.136 824.482 652.023C851.495 665.174 876.627 677.44 897.687 699.5L897.702 557.549C897.469 529.195 900.194 498.032 892.944 470.505C889.202 456.299 882.107 445.793 871.761 435.409C852.145 415.72 827.908 400.248 805.404 384.07C798.213 378.901 791.192 372.35 783.366 368.264ZM782.924 949.163C753.29 971.666 726.388 1000.5 721.056 1038.99C718.632 1056.48 723.617 1073.26 724.296 1090.64C725.331 1117.14 722.49 1143.75 726.178 1170.12C744.515 1171.1 762.894 1170.86 781.25 1170.83L837.829 1170.49Q839.101 1134.48 841.031 1098.5C841.914 1082.14 844.074 1065.19 843.01 1048.82C841.127 1019.87 825.153 987.406 805.287 966.36C798.825 959.513 791.381 953.387 782.924 949.163Z"/>
	<path transform="matrix(1.33727 0 0 1.33727 6.10352e-05 0)" d="M775.412 484.174C788.351 483.259 800.247 485.446 811.746 491.627Q813.332 492.496 814.874 493.441Q816.416 494.386 817.909 495.406Q819.403 496.426 820.844 497.518Q822.286 498.609 823.673 499.771Q825.059 500.932 826.387 502.159Q827.715 503.387 828.981 504.678Q830.247 505.97 831.449 507.322Q832.65 508.674 833.783 510.083Q834.917 511.492 835.98 512.955Q837.043 514.418 838.033 515.931Q839.024 517.444 839.938 519.005Q840.853 520.565 841.69 522.168Q842.528 523.771 843.285 525.413Q844.043 527.055 844.719 528.732Q845.395 530.41 845.988 532.118Q846.581 533.827 847.09 535.562C852.119 552.552 851.048 570.62 842.265 586.194C830.769 606.579 810.041 617.298 788.242 623.459C787.802 623.6 787.371 623.779 786.921 623.882C774.571 626.725 758.13 618.857 747.976 612.6C732.12 602.83 720.227 587.733 716.003 569.427Q715.626 567.764 715.332 566.084Q715.038 564.404 714.829 562.711Q714.619 561.019 714.495 559.318Q714.37 557.617 714.33 555.912Q714.29 554.207 714.335 552.502Q714.38 550.798 714.51 549.097Q714.641 547.397 714.856 545.705Q715.07 544.013 715.369 542.334Q715.668 540.655 716.051 538.993Q716.433 537.331 716.898 535.69Q717.363 534.049 717.909 532.434Q718.455 530.818 719.081 529.232Q719.707 527.645 720.411 526.092Q721.115 524.539 721.896 523.023Q722.677 521.506 723.532 520.031Q724.388 518.556 725.316 517.125C737.114 498.652 754.388 488.752 775.412 484.174ZM776.512 515.113C765.308 518.281 756.134 523.245 750.321 533.785C745.23 543.015 744.467 554.399 747.429 564.437C750.319 574.233 756.821 582.589 765.922 587.332C772.953 590.996 780.347 591.869 788.168 591.848C800.102 587.43 809.528 582.181 814.933 570.057C819.414 560.006 819.01 548.096 815.051 537.944C811.511 528.864 804.939 521.226 795.928 517.284C789.664 514.543 783.213 514.033 776.512 515.113Z"/>
	<path transform="matrix(1.33727 0 0 1.33727 6.10352e-05 0)" d="M491.505 977.264C500.873 977.786 509.255 979.909 517.263 984.938C533.422 995.086 543.241 1013.82 547.098 1032.05C551.461 1052.67 549.335 1075.68 537.482 1093.54C527.197 1109.05 512.949 1116.06 495.232 1119.81C485.15 1121.73 471.44 1117.1 463.16 1111.45C448.941 1101.74 441.105 1085.01 438.205 1068.45C434.255 1045.89 438.455 1020.63 451.81 1001.74C461.833 987.572 474.611 980.183 491.505 977.264ZM487.883 1007.82C475.755 1016.92 469.503 1029.13 467.425 1044.12C465.801 1055.84 466.824 1070.76 474.309 1080.49Q474.695 1081 475.108 1081.49Q475.52 1081.97 475.958 1082.44Q476.395 1082.9 476.856 1083.34Q477.317 1083.78 477.801 1084.2Q478.285 1084.62 478.79 1085.01Q479.294 1085.4 479.819 1085.76Q480.344 1086.12 480.887 1086.46Q481.43 1086.8 481.99 1087.1Q482.549 1087.41 483.125 1087.69Q483.7 1087.96 484.288 1088.21Q484.877 1088.45 485.478 1088.67Q486.079 1088.88 486.691 1089.07Q487.302 1089.25 487.922 1089.4Q488.542 1089.55 489.17 1089.67Q489.797 1089.79 490.429 1089.87Q491.062 1089.96 491.698 1090.01C493.625 1090.17 495.552 1090.09 497.478 1089.96C508.393 1082.83 514.115 1073.94 516.793 1061.1C519.52 1048.02 518.235 1030.3 510.736 1018.87C507.275 1013.59 502.208 1009.51 495.949 1008.14C493.214 1007.55 490.65 1007.51 487.883 1007.82Z"/>
	<path transform="matrix(1.33727 0 0 1.33727 6.10352e-05 0)" d="M1036.87 977.066C1048.12 976.719 1058.81 979.031 1068.43 985.07C1084.38 995.084 1093.86 1012.96 1097.83 1030.94C1102.48 1052.03 1100.5 1076.47 1088.59 1094.94C1079.83 1108.53 1067.79 1115.41 1052.31 1118.85C1041.73 1119.05 1031.28 1117.82 1021.66 1113.14C1007.37 1106.2 997.767 1093.08 992.909 1078.2C985.714 1056.16 988.208 1029.92 998.793 1009.37C1007.21 993.026 1019.43 982.629 1036.87 977.066ZM1041.32 1007.12C1028.89 1015.46 1021.56 1026.99 1018.69 1041.73C1016.48 1053.08 1017.01 1066.22 1023.64 1076.1C1028.82 1083.82 1035.9 1087.1 1044.81 1088.73C1045.67 1088.89 1046.53 1089.02 1047.39 1089.16C1056.53 1085.63 1062.63 1080.29 1066.61 1071.28C1072.11 1058.86 1071.55 1042.78 1066.64 1030.27C1063.29 1021.7 1057.12 1013.22 1048.5 1009.42C1046.18 1008.4 1043.78 1007.71 1041.32 1007.12Z"/>
	<path transform="matrix(1.33727 0 0 1.33727 6.10352e-05 0)" d="M773.228 720.226C785.001 719.642 797.54 722.378 807.736 728.353C821.452 736.39 831.017 749.939 834.804 765.307C838.459 780.144 836.506 796.135 828.337 809.169C818.943 824.156 804.126 831.033 787.445 834.836C774.29 835.023 761.503 833.24 750.07 826.334C737.677 818.847 729.253 806.627 725.84 792.625Q725.491 791.184 725.213 789.728Q724.935 788.272 724.729 786.804Q724.523 785.335 724.39 783.859Q724.256 782.382 724.195 780.901Q724.134 779.42 724.146 777.937Q724.158 776.455 724.242 774.975Q724.327 773.495 724.484 772.02Q724.641 770.546 724.87 769.081Q725.1 767.617 725.401 766.165Q725.702 764.714 726.074 763.278Q726.446 761.843 726.888 760.428Q727.329 759.013 727.84 757.621Q728.351 756.229 728.93 754.865Q729.508 753.5 730.153 752.165Q730.798 750.83 731.508 749.528Q732.217 748.226 732.99 746.961C742.359 731.932 756.415 724.269 773.228 720.226ZM775.985 750.978C767.797 753.401 761.055 757.169 756.834 765.027Q756.53 765.606 756.254 766.2Q755.978 766.793 755.732 767.4Q755.485 768.006 755.268 768.623Q755.05 769.241 754.863 769.868Q754.676 770.495 754.52 771.13Q754.364 771.766 754.238 772.408Q754.113 773.051 754.018 773.698Q753.924 774.346 753.861 774.997Q753.798 775.649 753.767 776.302Q753.736 776.956 753.736 777.611Q753.737 778.265 753.769 778.919Q753.801 779.572 753.865 780.224Q753.928 780.875 754.024 781.523Q754.119 782.17 754.245 782.812Q754.372 783.454 754.529 784.09Q754.686 784.725 754.874 785.352C756.93 792.161 761.676 797.627 767.921 800.932C773.386 803.824 779.217 804.232 785.258 804.126C793.872 800.841 801.011 796.615 804.834 787.643Q805.087 787.042 805.309 786.429Q805.532 785.815 805.723 785.192Q805.914 784.568 806.074 783.936Q806.233 783.303 806.361 782.664Q806.488 782.024 806.583 781.378Q806.678 780.733 806.74 780.084Q806.803 779.435 806.832 778.783Q806.862 778.131 806.859 777.479Q806.856 776.827 806.819 776.176Q806.783 775.524 806.715 774.876Q806.646 774.227 806.544 773.583Q806.443 772.938 806.309 772.3Q806.175 771.662 806.009 771.031Q805.844 770.4 805.646 769.778Q805.449 769.156 805.22 768.546Q804.992 767.935 804.733 767.336Q804.453 766.704 804.142 766.088Q803.83 765.472 803.488 764.872Q803.145 764.273 802.772 763.692Q802.398 763.111 801.996 762.549Q801.593 761.988 801.162 761.448Q800.732 760.909 800.274 760.392Q799.816 759.875 799.332 759.382Q798.848 758.89 798.339 758.423Q797.83 757.956 797.298 757.515Q796.766 757.075 796.212 756.663Q795.658 756.25 795.084 755.867Q794.51 755.483 793.916 755.13Q793.323 754.777 792.712 754.454Q792.101 754.132 791.475 753.841Q790.848 753.551 790.208 753.293Q789.567 753.035 788.914 752.81C784.809 751.352 780.322 750.921 775.985 750.978Z"/>
</svg>
