<?xml version="1.0" encoding="utf-8" ?>
<svg xmlns="http://www.w3.org/2000/svg" xmlns:xlink="http://www.w3.org/1999/xlink" width="1024" height="1189" fill="#FFFFFF">
	<path d="M168.372 894.229C168.728 893.308 168.725 892.506 169.659 892.066C173.625 890.197 183.062 891.566 187.576 891.705L187.648 928.557C187.656 935.516 188.232 943.169 187.153 950.03C184.82 944.069 186.518 903.272 186.08 893.028C181.048 892.152 172.934 891.759 168.372 894.229Z"/>
	<path d="M593.47 861.169C595.567 861.411 597.524 861.67 599.381 862.745C601.97 864.245 603.938 866.841 604.609 869.765C605.213 872.395 604.792 875.298 603.354 877.596C601.297 880.886 598.449 882.231 594.773 882.988C592.763 882.769 590.79 882.569 589.005 881.542Q588.501 881.257 588.029 880.92Q587.557 880.584 587.124 880.199Q586.69 879.815 586.299 879.388Q585.908 878.96 585.564 878.494Q585.22 878.027 584.927 877.528Q584.634 877.028 584.395 876.5Q584.155 875.972 583.973 875.422Q583.791 874.872 583.667 874.306C583.028 871.324 583.608 868.134 585.414 865.656C587.566 862.703 589.98 861.779 593.47 861.169Z"/>
	<path d="M409.355 1080.58C410.368 1081.08 409.939 1080.93 410.969 1081.19C413.694 1081.88 416.419 1082.58 418.415 1084.71C420.456 1086.89 421.19 1090.04 420.946 1092.95C420.698 1095.9 419.422 1098.9 416.994 1100.7C415.214 1102.02 413.995 1102.22 411.867 1101.99C409.949 1102.95 408.339 1103 406.278 1102.23C403.725 1101.27 401.8 1099.16 400.749 1096.68Q400.521 1096.15 400.348 1095.6Q400.175 1095.05 400.059 1094.49Q399.942 1093.93 399.884 1093.35Q399.825 1092.78 399.825 1092.2Q399.826 1091.63 399.884 1091.06Q399.943 1090.48 400.06 1089.92Q400.176 1089.36 400.349 1088.81Q400.523 1088.26 400.751 1087.73C402.504 1083.69 405.445 1082.12 409.355 1080.58Z"/>
	<path d="M715.163 861.095C717.038 861.391 718.932 861.651 720.625 862.562C723.194 863.944 725.24 866.45 726.01 869.272Q726.155 869.801 726.244 870.343Q726.333 870.884 726.366 871.432Q726.399 871.979 726.375 872.528Q726.35 873.076 726.269 873.618Q726.189 874.161 726.052 874.693Q725.916 875.224 725.725 875.739Q725.534 876.253 725.292 876.745Q725.049 877.237 724.756 877.701C722.66 881.002 719.769 882.243 716.079 883.046C714.005 882.761 712.02 882.462 710.207 881.343Q709.719 881.047 709.263 880.702Q708.808 880.357 708.39 879.966Q707.973 879.576 707.597 879.145Q707.222 878.714 706.893 878.247Q706.564 877.78 706.285 877.281Q706.006 876.783 705.78 876.258Q705.554 875.733 705.382 875.188Q705.211 874.643 705.097 874.083Q704.986 873.536 704.932 872.979Q704.879 872.423 704.884 871.865Q704.888 871.306 704.951 870.751Q705.013 870.196 705.133 869.651Q705.253 869.105 705.429 868.575Q705.605 868.045 705.835 867.536Q706.065 867.026 706.346 866.544Q706.628 866.062 706.958 865.611C709.126 862.643 711.663 861.713 715.163 861.095Z"/>
	<path d="M344.213 861.1C345.992 861.37 347.789 861.633 349.412 862.455C352.071 863.8 354.247 866.404 355.022 869.29Q355.164 869.815 355.252 870.353Q355.34 870.89 355.372 871.434Q355.404 871.977 355.381 872.521Q355.357 873.065 355.277 873.604Q355.198 874.143 355.064 874.67Q354.929 875.198 354.741 875.709Q354.554 876.22 354.314 876.709Q354.075 877.198 353.787 877.66C351.693 880.975 348.817 882.215 345.126 883.045C342.934 882.734 340.926 882.438 339.026 881.229Q338.557 880.932 338.12 880.59Q337.683 880.247 337.282 879.863Q336.881 879.479 336.521 879.056Q336.161 878.634 335.844 878.178Q335.528 877.721 335.259 877.236Q334.99 876.75 334.771 876.24Q334.552 875.73 334.384 875.2Q334.217 874.671 334.104 874.127Q333.99 873.576 333.935 873.015Q333.879 872.455 333.883 871.892Q333.886 871.329 333.948 870.769Q334.011 870.209 334.131 869.659Q334.252 869.109 334.429 868.575Q334.607 868.041 334.839 867.528Q335.071 867.015 335.356 866.529Q335.641 866.043 335.975 865.59C338.168 862.611 340.689 861.709 344.213 861.1Z"/>
	<path d="M584.708 891.711Q593.94 891.59 603.172 891.72L603.138 945.063C596.981 945.151 590.811 945.06 584.652 945.043C584.308 927.303 584.469 909.452 584.708 891.711Z"/>
	<path d="M401.042 1111.14C404.647 1112.5 415.78 1112.16 419.52 1110.99C419.535 1118.79 420.635 1160.06 419.066 1164.15C418.782 1164.33 418.344 1164.64 418.003 1164.77C415.277 1165.8 403.557 1165.75 400.851 1164.35C401.219 1158.61 400.879 1152.61 400.876 1146.85Q400.787 1128.99 401.042 1111.14Z"/>
	<path d="M335.017 891.583L353.685 891.705C353.975 909.48 353.766 927.291 353.698 945.07C347.471 945.161 341.23 945.069 335.001 945.062L335.017 891.583Z"/>
	<path d="M706.006 891.587L724.783 891.704C724.505 909.419 724.807 927.174 724.75 944.896C719.058 945.998 711.839 945.12 706.004 945.059L706.006 891.587Z"/>
	<path d="M381.174 1110.13C385.011 1111.41 390.119 1110.43 394.94 1112.27C396.215 1112.76 397.246 1113.09 398.594 1113.3C397.149 1119.06 393.465 1125.04 390.63 1130.25C390.551 1130.22 390.459 1130.22 390.394 1130.17C388.381 1128.61 387.508 1127.08 384.749 1126.73C381.853 1126.36 378.858 1126.52 376.525 1128.48C369.11 1134.69 373.278 1155 372.294 1164.16L371.233 1164.4C370.925 1164.53 370.483 1164.73 370.14 1164.82C366.729 1165.73 356.815 1165.9 353.792 1164.32Q353.621 1137.51 353.946 1110.7C358.729 1113.43 366.103 1110.42 371.229 1111.61C373.154 1112.05 371.867 1113.25 372.985 1114.5C375.747 1113.11 378.569 1111.8 381.174 1110.13Z"/>
	<path d="M564.979 890.787C568.498 890.382 572.4 890.398 575.9 891.025C578.015 891.404 579.183 891.928 580.429 893.681C581.696 898.274 576.358 906.275 574.224 910.544C573.351 909.605 572.357 908.566 571.281 907.861C568.982 906.351 565.238 906.497 562.672 907.089C549.843 910.045 559.876 938.239 555.356 945.084L537.245 945.049C537.775 927.303 537.212 909.427 537.384 891.661Q546.033 891.584 554.681 891.679L554.077 892.414L554.789 891.675L555.899 891.839L556.237 894.079C557.432 894.382 562.497 891.513 564.292 890.982C564.52 890.914 564.75 890.852 564.979 890.787Z"/>
	<path d="M335.779 1110.16C338.779 1111.22 342.276 1110.07 345.385 1110.74C347.833 1111.26 349.973 1112.9 352.358 1113.63C352.547 1113.68 352.741 1113.72 352.932 1113.77C351.244 1119.34 347.994 1125.01 345.214 1130.11L345.01 1130.09C343.783 1129.06 342.567 1128.04 341.084 1127.4C338.413 1126.24 335.151 1126.2 332.484 1127.4C322.125 1132.06 329.82 1155.92 326.787 1163.63C326.708 1163.83 326.618 1164.02 326.533 1164.22C326.174 1164.4 325.662 1164.67 325.256 1164.8C322.008 1165.78 311.338 1165.81 308.29 1164.22L308.324 1110.71C313.234 1113.68 321.437 1109.7 326.759 1112.57C327.041 1113.46 327.139 1113.71 327.781 1114.43L335.779 1110.16Z"/>
	<path d="M100.659 861.636C106.776 861.471 112.93 861.613 119.051 861.629L119.054 945.065C112.913 945.179 106.752 945.062 100.609 945.044C100.288 917.274 100.36 889.405 100.659 861.636Z"/>
	<path d="M197.192 858.057L215.982 858.054L216.035 923.983C216.036 928.289 215.22 940.726 215.912 944.006C215.962 944.244 216.081 944.463 216.165 944.692L215.448 944.758L215.232 945.086L197.068 945.052C197.209 916.063 196.682 887.04 197.192 858.057Z"/>
	<path d="M635.441 890.249C641.954 889.179 651.075 892.533 656.603 895.797C655.057 898.514 651.764 906.59 649.22 907.785C646.2 905.435 642.636 904.33 638.839 904.067C636.649 903.915 633.953 903.815 632.284 905.473C631.544 906.209 631.827 906.535 631.882 907.49C636.138 912.415 646.332 911.656 651.712 916.259C654.722 918.834 657.106 922.621 657.394 926.638C657.704 930.971 655.603 935.229 652.742 938.362C647.369 944.243 640.07 945.324 632.566 945.81C624.446 945.839 617.32 943.521 610.456 939.292Q613.684 932.622 617.209 926.103C622.214 929.093 628.208 932.088 634.218 930.601C636.18 930.116 637.381 929.316 638.368 927.605C638.306 927.191 638.369 926.736 638.181 926.362C637.628 925.262 622.372 920.223 619.108 917.62C616.05 915.182 613.316 911.554 612.959 907.545C612.634 903.906 614.358 900.415 616.633 897.683C621.428 891.925 628.396 890.763 635.441 890.249Z"/>
	<path d="M305.674 890.243C312.529 889.31 320.969 892.535 326.912 895.673Q323.412 902.027 319.687 908.251C319.531 908.113 319.379 907.971 319.218 907.838C315.369 904.66 311.212 903.762 306.307 904.197C304.488 904.358 303.441 904.642 302.247 906.033L302.451 907.397C305.995 912.209 316.692 912.237 322.042 916.104C324.941 918.2 326.584 921.111 326.999 924.653C327.546 929.319 326.522 934.269 323.569 937.991C318.66 944.181 310.639 945.152 303.343 945.836C294.992 945.808 287.697 943.708 280.662 939.225C282.841 934.772 285.203 930.397 287.487 925.996C289.439 927.205 291.443 928.544 293.574 929.41C296.756 930.702 302.469 931.707 305.626 930.208C307.083 929.517 307.792 929.047 308.4 927.587C306.886 923.556 294.151 921.16 290.101 918.258C286.876 915.946 284.206 912.634 283.629 908.61C283.084 904.818 284.401 900.454 286.79 897.479C291.199 891.99 299.119 890.777 305.674 890.243Z"/>
	<path d="M769.071 1110.98C769.297 1111.09 769.519 1111.21 769.749 1111.32C772.872 1112.79 785.587 1112.28 789.053 1111.14C787.791 1115.37 785.41 1123.02 782.566 1126.39C781.526 1131.71 769.532 1160.14 766.728 1164.36C766.402 1164.5 765.89 1164.75 765.52 1164.85C761.767 1165.87 749.718 1165.88 746.503 1164.17C744.073 1161.09 725.359 1115.63 724.691 1111.33C727.532 1112.54 741.082 1112.19 744.349 1111.15C745.868 1117.24 753.704 1138.37 756.699 1142.91C759.285 1140.17 767.49 1116.02 769.071 1110.98Z"/>
	<path d="M668.009 870.871C674.169 870.719 680.343 870.851 686.504 870.896L686.579 891.23L698.188 891.456Q698.248 899.447 698.142 907.437L686.612 907.597C686.576 912.639 685.012 922.633 687.265 926.956C687.993 928.352 688.649 928.543 690.091 928.969C691.983 928.695 693.01 927.835 694.502 926.69C697.042 931.3 699.335 936.101 701.744 940.784C697.347 944.22 691.354 945.721 685.849 945.78C681.019 945.833 676.141 944.757 672.693 941.135C665.613 933.699 667.844 917.197 667.928 907.653C664.952 907.697 661.961 907.492 658.988 907.365L658.987 891.375L667.883 891.305L668.009 870.871Z"/>
	<path d="M643.859 1110.54C644.14 1110.7 644.575 1110.97 644.904 1111.08C647.846 1112.07 659.388 1111.99 662.242 1110.53L662.278 1126.15C662.319 1130.12 662.401 1134.09 662.294 1138.05C662.081 1145.97 660.146 1153.49 654.079 1158.98C648.366 1164.14 640.525 1166.17 632.956 1165.87C625.481 1165.57 618.067 1163.02 612.943 1157.38C603.992 1147.52 606.031 1123.53 606.724 1110.67C607.325 1110.98 607.365 1111.04 608.132 1111.22C611.292 1111.95 622.138 1112.06 625.046 1110.48C625.134 1118.91 622.812 1141.13 628.33 1147.13C629.872 1148.8 631.918 1149.6 634.177 1149.61C636.458 1149.63 638.581 1148.9 640.19 1147.25C645.972 1141.31 643.864 1118.79 643.859 1110.54Z"/>
	<path d="M544.682 1000.49C545.385 1000.43 545.426 1000.42 546.252 1000.43C552.333 1000.53 558.507 1002.4 562.797 1006.9C570.041 1014.49 568.895 1025.46 568.86 1035.1L568.76 1054.08C568.49 1054.21 568.226 1054.35 567.952 1054.47C564.524 1056 553.485 1055.57 549.866 1054.21C550.27 1046.65 551.289 1023.96 547.809 1018.27C546.836 1016.68 545.471 1015.41 543.59 1015.05C541.12 1014.59 538.206 1015.38 536.109 1016.68C535.564 1017.16 535.024 1017.65 534.515 1018.17C528.909 1023.92 531.194 1045.73 531.143 1053.96C530.634 1054.23 530.124 1054.55 529.575 1054.72C526.002 1055.84 515.829 1055.83 512.62 1053.97C511.863 1036.66 512.515 1018.95 512.609 1001.61C518.725 1001.57 524.978 1001.27 531.071 1001.78C531.203 1002.75 531.371 1003.7 531.583 1004.66C534.545 1004.37 539.367 1001.18 544.682 1000.49Z"/>
	<path d="M830.367 890.779C831.401 890.656 832.412 890.589 833.454 890.555C839.783 890.348 846.041 891.851 850.714 896.409C858.732 904.228 857.43 915.731 857.346 925.935L857.162 945.055C850.948 945.173 844.715 945.062 838.499 945.046C838.29 935.021 839.687 924.152 838.413 914.267C838.037 911.352 836.932 908.151 834.447 906.362C831.995 904.597 828.905 905.13 826.134 905.609C823.763 907.418 822.119 909.038 820.444 911.5C818.669 922.207 819.656 934.199 819.686 945.077L801.03 945.064L801.044 891.654C804.831 891.608 816.944 890.631 819.563 892.013L819.893 894.744C822.225 894.914 826.796 891.651 829.643 890.951L830.367 890.779Z"/>
	<path d="M474.739 999.909C475.26 999.844 475.782 999.793 476.305 999.758C484.128 999.239 491.781 1000.66 497.743 1006.08C503.057 1010.91 506.404 1018.8 506.583 1025.96C506.648 1028.59 506.237 1030.66 504.35 1032.54C498.684 1033.48 474.574 1034.04 469.2 1032.45C470.262 1035.55 471.175 1037.7 474.149 1039.36C478.102 1041.55 483.098 1041.66 487.359 1040.36C491.188 1039.2 494.582 1036.85 496.472 1033.28C497.341 1035.19 498.163 1037 499.927 1038.2C500.734 1040.78 502.821 1044.01 504.756 1045.89C504.686 1046.01 504.62 1046.12 504.546 1046.24C501.365 1051.06 496.298 1053.64 490.767 1054.82C481.733 1056.75 471.399 1056.48 463.443 1051.28C457.34 1047.29 453.459 1041.07 452.045 1033.96C450.483 1026.1 451.62 1017.44 456.188 1010.74C460.675 1004.16 467.114 1001.31 474.739 999.909ZM475.27 1014.33C473.5 1015.58 471.766 1016.61 470.663 1018.53L471.014 1019.53C474.498 1020.88 479.94 1020.04 483.701 1020.03C485.442 1019.98 486.3 1020.21 487.712 1019.14C487.357 1017.77 486.881 1017.12 485.671 1016.32C482.186 1014.01 479.252 1014.09 475.27 1014.33Z"/>
	<path d="M248.762 889.624C250.787 889.568 252.87 889.693 254.884 889.905Q255.497 889.968 256.106 890.062Q256.716 890.156 257.319 890.281Q257.923 890.406 258.52 890.562Q259.116 890.717 259.704 890.903Q260.292 891.089 260.87 891.304Q261.447 891.519 262.013 891.763Q262.579 892.008 263.132 892.28Q263.685 892.553 264.224 892.853Q264.762 893.154 265.284 893.481Q265.807 893.808 266.312 894.162Q266.817 894.515 267.303 894.894Q267.79 895.273 268.256 895.676Q268.723 896.079 269.169 896.505Q269.614 896.931 270.038 897.379Q270.461 897.827 270.861 898.296Q271.261 898.765 271.637 899.254C275.408 904.161 278.423 912.695 277.413 918.887C277.195 920.223 276.555 921.689 275.333 922.366C269.257 925.736 245.196 920.561 241.041 923.726L241.052 925.065C241.802 926.335 242.555 927.468 243.686 928.437C246.484 930.832 250.048 931.433 253.636 931.141C259.376 930.675 263.779 928.234 267.434 923.902L271.389 929.78L275.863 936.363C271.361 941.563 266.028 944.316 259.268 945.319C250.144 946.672 240.233 945.867 232.696 940.066C226.799 935.527 223.549 928.773 222.648 921.476C221.695 913.748 223.357 905.531 228.261 899.347C233.568 892.654 240.555 890.504 248.762 889.624ZM248.266 904.072C245.22 904.842 243.63 905.788 241.84 908.38L242.019 909.475C244.441 910.614 248.525 910.052 251.211 909.994C253.583 910.102 255.864 910.472 258.04 909.359L258.567 908.236C257.882 906.582 255.952 905.607 254.382 904.896C252.447 904.018 250.345 904.084 248.266 904.072Z"/>
	<path d="M693.062 1108.91C698.525 1111.5 706.096 1108.94 712.475 1114.04C718.689 1119.02 722.764 1127.7 723.381 1135.57C723.602 1138.39 723.362 1140.12 721.5 1142.27C717.287 1143.98 690.905 1143.62 685.943 1142.63C686.932 1145.24 687.738 1147.3 690.162 1148.91C693.843 1151.36 698.84 1151.62 703.034 1150.61C707.342 1149.58 710.88 1147.12 713.195 1143.34C714.284 1145.33 715.406 1147.76 717.193 1149.19C718.256 1151.45 719.504 1154.11 721.7 1155.43C720.015 1158.25 718.119 1160.17 715.29 1161.88C707.769 1166.43 696.769 1167.02 688.413 1164.79C681.367 1162.91 675.252 1158.6 671.69 1152.16C667.673 1144.9 667.168 1135.72 669.587 1127.85C672.021 1119.94 677.332 1113.96 685.336 1111.48C687.579 1110.78 690.274 1110.47 692.327 1109.33C692.574 1109.19 692.817 1109.05 693.062 1108.91ZM693.644 1123.41C691.304 1124.92 688.52 1127.91 686.129 1128.86C688.661 1130.37 693.484 1130.48 696.292 1129.77C696.947 1129.6 697.468 1129.29 698.046 1128.96C699.801 1129.8 701.331 1130.39 703.27 1129.76C704.024 1129.52 704.715 1129.18 705.412 1128.81L704.686 1128.32C703.966 1127.84 703.435 1127.33 702.808 1126.73C699.884 1123.98 696.792 1124.88 693.644 1123.41Z"/>
	<path d="M453.126 1109C458.139 1110.24 463.317 1109.93 468.146 1112.04C474.467 1114.79 479.815 1120.01 482.413 1126.42C485.335 1133.62 485.18 1142.39 482.039 1149.49C479.308 1155.66 473.774 1161.62 467.368 1163.96C464.762 1164.91 461.498 1165.99 458.89 1164.77C455.644 1166.5 450.794 1165.92 447.315 1164.95C440.241 1162.97 433.755 1157.52 430.323 1151.07C426.707 1144.27 426.178 1135.87 428.49 1128.56C430.874 1121.03 436.599 1114.32 444.196 1111.85C446.796 1111 450.099 1110.71 452.464 1109.39C452.687 1109.26 452.906 1109.13 453.126 1109ZM451.745 1125.8C448.156 1128.92 445.963 1131.48 445.489 1136.47C445.159 1139.94 446.101 1143.81 448.372 1146.51C449.833 1148.25 451.73 1149.26 453.991 1149.43C456.321 1149.59 458.12 1149.45 460.046 1148.02C461.809 1147.89 462.903 1147.33 464.072 1145.92C466.477 1143.01 466.754 1138.34 466.135 1134.79C465.69 1132.23 464.523 1129.16 462.31 1127.6C459.061 1125.32 455.093 1127.12 451.745 1125.8Z"/>
	<path d="M816.154 1108.89C820.959 1110.84 826.694 1110.05 831.718 1112.23C837.8 1114.86 843.116 1120.61 845.532 1126.75C848.388 1134 848.145 1142.7 844.915 1149.79C842.136 1155.89 836.609 1161.75 830.221 1164.01C827.584 1164.95 824.335 1166.01 821.701 1164.78C818.372 1166.55 813.173 1165.87 809.645 1164.75C802.718 1162.55 796.498 1157.22 793.17 1150.78C789.681 1144.02 789.201 1135.77 791.503 1128.56C793.762 1121.48 799.408 1114.41 806.586 1112.03C809.386 1111.1 812.849 1110.75 815.41 1109.32C815.661 1109.19 815.906 1109.04 816.154 1108.89ZM814.748 1125.92C811.111 1128.96 808.906 1131.54 808.492 1136.52C808.197 1140.09 809.271 1143.88 811.587 1146.63C812.813 1148.09 814.598 1149.3 816.535 1149.48C818.777 1149.68 820.489 1149.58 822.277 1148.2C824.129 1148.19 825.289 1147.82 826.637 1146.43C829.027 1143.97 829.615 1139.83 829.376 1136.56C829.152 1133.48 828.098 1129.89 825.588 1127.88C822.799 1125.66 818.137 1126.34 814.748 1125.92Z"/>
	<path d="M887.301 890.169C892.986 889.855 902.725 894.785 903.765 894.521C903.842 893.304 903.817 892.426 904.452 891.35C910.36 890.893 916.61 891.351 922.552 891.428C922.88 909.099 922.622 926.818 922.573 944.493C917.455 944.543 912.008 944.915 906.91 944.497C905.467 944.379 905.327 944.388 904.411 943.348C904.371 942.165 904.318 941.18 904.007 940.028L902.922 940.486C899.446 943.109 895.603 945.142 891.238 945.747C884.649 946.661 878.192 944.735 872.972 940.661C867.078 936.062 863.65 929.072 862.839 921.712C861.974 913.862 863.77 905.439 868.805 899.222C873.642 893.248 879.856 891.023 887.301 890.169ZM889.046 906.475C885.654 908.05 883.145 909.987 881.76 913.584Q881.546 914.154 881.389 914.743Q881.232 915.331 881.135 915.932Q881.037 916.534 880.999 917.142Q880.961 917.75 880.984 918.358Q881.006 918.967 881.089 919.57Q881.172 920.174 881.314 920.766Q881.456 921.358 881.655 921.934Q881.855 922.509 882.111 923.062C883.404 925.86 885.881 928.23 888.813 929.236C890.972 929.977 893.431 929.979 895.679 929.737C899.318 928.18 901.905 926.068 903.319 922.254Q903.529 921.68 903.683 921.088Q903.836 920.496 903.931 919.892Q904.026 919.288 904.061 918.677Q904.097 918.067 904.073 917.456Q904.048 916.845 903.965 916.239Q903.881 915.634 903.738 915.039Q903.596 914.444 903.396 913.866Q903.196 913.289 902.941 912.733C901.671 910.003 899.201 907.684 896.321 906.741C894.027 905.989 891.41 906.214 889.046 906.475Z"/>
	<path d="M756.946 890.197C763.512 889.734 767.653 893.28 773.573 894.804C773.745 893.758 773.949 892.73 774.18 891.695C777.737 890.176 788.153 891.34 792.349 891.452Q792.479 917.97 792.309 944.487C788.972 944.516 776.378 945.345 774.083 944.01C774.028 942.739 773.935 941.535 773.743 940.274L772.929 940.31C769.614 942.968 765.704 944.957 761.497 945.686C755.039 946.804 748.4 944.92 743.198 941.016C737.21 936.524 733.596 929.659 732.668 922.289C731.673 914.39 733.348 905.768 738.384 899.458C743.218 893.401 749.427 891.073 756.946 890.197ZM759.031 906.444C755.621 907.917 753.132 909.701 751.682 913.247Q751.455 913.811 751.283 914.394Q751.112 914.978 750.999 915.575Q750.886 916.172 750.832 916.778Q750.778 917.384 750.783 917.992Q750.789 918.6 750.854 919.204Q750.919 919.809 751.043 920.404Q751.167 920.999 751.349 921.579Q751.53 922.159 751.768 922.719C752.963 925.547 755.321 927.997 758.205 929.105C760.341 929.926 762.861 930.014 765.121 929.802C768.738 928.381 771.204 926.642 772.825 922.988C774.235 919.81 774.169 915.968 772.722 912.815C771.489 910.13 769.032 907.753 766.222 906.778C763.984 906.001 761.353 906.207 759.031 906.444Z"/>
	<path d="M263.513 1109.48C266.693 1110.93 270.903 1110.1 274.199 1111.43C276.212 1112.25 279.375 1115.2 281.442 1114.99L281.749 1112.07C284.517 1109.82 295.728 1112.78 300.143 1110.53L300.109 1163.63C296.738 1165.39 289.463 1164.81 285.592 1164.63C279.984 1164.36 283.404 1162.79 280.674 1159.75C279.522 1161.32 277.938 1162.33 276.247 1163.26C270.736 1166.31 265.201 1166.96 259.129 1165.09Q258.493 1164.89 257.868 1164.66Q257.243 1164.44 256.63 1164.18Q256.018 1163.92 255.418 1163.63Q254.819 1163.34 254.235 1163.02Q253.651 1162.7 253.084 1162.35Q252.516 1162 251.967 1161.63Q251.418 1161.25 250.888 1160.85Q250.358 1160.45 249.848 1160.02Q249.339 1159.59 248.852 1159.14Q248.364 1158.68 247.9 1158.2Q247.436 1157.73 246.996 1157.23Q246.556 1156.73 246.142 1156.21Q245.728 1155.69 245.34 1155.15Q244.952 1154.61 244.591 1154.05Q244.231 1153.49 243.898 1152.91Q243.566 1152.33 243.263 1151.74C239.595 1144.58 239.149 1135.59 241.608 1127.97C243.924 1120.8 248.962 1114.93 256.022 1112.17C258.209 1111.31 260.705 1111.02 262.767 1109.9C263.018 1109.76 263.264 1109.62 263.513 1109.48ZM266.901 1125.77C262.927 1128.46 260.087 1130.6 258.97 1135.57Q258.834 1136.2 258.763 1136.83Q258.691 1137.47 258.684 1138.11Q258.677 1138.75 258.735 1139.39Q258.793 1140.03 258.915 1140.66Q259.037 1141.28 259.222 1141.9Q259.407 1142.51 259.653 1143.1Q259.9 1143.69 260.204 1144.26Q260.509 1144.82 260.869 1145.35C262.428 1147.65 264.737 1149.26 267.494 1149.7C268.945 1149.93 270.767 1150.09 272.064 1149.29C272.238 1149.18 272.385 1149.04 272.546 1148.91C274.518 1149.12 275.813 1148.87 277.44 1147.6C279.866 1145.7 281.007 1142.45 281.265 1139.47C281.564 1136.02 280.807 1132.24 278.545 1129.53C275.063 1125.35 271.116 1127.36 266.901 1125.77Z"/>
	<path d="M385.948 890.2C391.078 889.848 394.233 891.504 398.715 893.545C399.919 894.093 401.515 894.956 402.765 894.508L402.875 891.846C406.486 890.29 417.086 891.401 421.366 891.452Q421.514 917.97 421.329 944.488C417.097 944.535 406.952 945.764 403.46 943.956C402.889 942.828 402.814 941.98 402.754 940.747L402.735 940.283L402.002 940.261C398.681 942.924 394.772 944.93 390.557 945.671C384.109 946.806 377.563 944.957 372.327 941.11C366.346 936.716 362.696 929.873 361.705 922.582C360.625 914.627 362.282 905.975 367.29 899.572C372.09 893.435 378.414 891.063 385.948 890.2ZM388.1 906.432C384.7 907.866 382.234 909.615 380.732 913.101C379.359 916.286 379.501 920.063 380.977 923.186C382.292 925.969 384.758 928.304 387.695 929.285C389.677 929.947 392.089 930.002 394.156 929.795C397.787 928.348 400.226 926.606 401.847 922.928C403.233 919.782 403.146 915.936 401.72 912.821C400.496 910.147 398.051 907.763 395.255 906.783C393.037 906.007 390.403 906.203 388.1 906.432Z"/>
	<path d="M500.345 859.463C511.837 859.095 521.517 861.237 531.049 867.729C528.583 873.196 525.734 878.542 523.053 883.91C520.196 881.911 517.407 880.352 514.034 879.399C506.676 877.318 496.91 877.535 490.186 881.449C484.971 884.484 481.609 889.558 480.151 895.333C478.4 902.269 479.195 909.972 482.972 916.121Q483.274 916.617 483.601 917.096Q483.928 917.576 484.279 918.039Q484.629 918.502 485.003 918.947Q485.376 919.391 485.771 919.817Q486.166 920.242 486.582 920.647Q486.998 921.052 487.434 921.436Q487.869 921.82 488.324 922.181Q488.778 922.543 489.25 922.881Q489.722 923.219 490.21 923.533Q490.698 923.847 491.202 924.136Q491.705 924.426 492.222 924.689Q492.739 924.953 493.269 925.19Q493.799 925.428 494.34 925.638Q494.881 925.849 495.432 926.032Q495.983 926.215 496.542 926.371Q497.102 926.526 497.668 926.653C506.774 928.772 515.34 925.97 523.087 921.242L526.586 928.058L531.1 937.139C524.748 941.825 517.517 944.766 509.644 945.608C497.355 946.921 484.46 943.588 474.874 935.658Q474.071 934.994 473.302 934.292Q472.533 933.59 471.8 932.85Q471.066 932.111 470.37 931.336Q469.674 930.561 469.016 929.753Q468.359 928.945 467.743 928.106Q467.126 927.266 466.552 926.397Q465.977 925.528 465.446 924.632Q464.915 923.736 464.429 922.815Q463.943 921.894 463.503 920.95Q463.063 920.006 462.669 919.041Q462.276 918.077 461.931 917.094Q461.586 916.111 461.29 915.112Q460.993 914.114 460.747 913.102Q460.5 912.09 460.303 911.067Q460.107 910.044 459.961 909.013Q459.815 907.981 459.72 906.944C458.682 895.084 462.018 883.674 469.769 874.565C477.738 865.201 488.265 860.501 500.345 859.463Z"/>
	<path d="M169.636 939.002C166.471 941.703 163.314 943.775 159.261 944.914Q158.673 945.076 158.077 945.209Q157.481 945.341 156.879 945.443Q156.277 945.545 155.671 945.616Q155.065 945.687 154.456 945.728Q153.847 945.768 153.236 945.778Q152.626 945.787 152.016 945.766Q151.406 945.744 150.798 945.692Q150.19 945.64 149.585 945.556Q148.981 945.473 148.381 945.359Q147.781 945.246 147.188 945.102Q146.595 944.958 146.01 944.784Q145.425 944.61 144.849 944.407Q144.274 944.203 143.709 943.971Q143.145 943.739 142.593 943.478Q142.041 943.218 141.503 942.929Q140.965 942.641 140.442 942.326C134.448 938.791 130.34 932.96 128.608 926.258C126.582 918.415 127.517 909.266 131.745 902.286C135.186 896.603 140.568 892.44 147.059 890.884C154.892 889.007 161.108 890.797 167.856 894.854L168.372 894.229C172.934 891.759 181.048 892.152 186.08 893.028C186.518 903.272 184.82 944.069 187.153 950.03C185.846 955.022 183.894 959.244 180.093 962.84C173.675 968.911 164.646 971.114 156.015 970.828C144.712 970.453 136.607 967.425 128.804 959.166C132.511 955.074 136.518 951.183 140.377 947.231C143.949 951.3 148.111 954.224 153.59 955.012C157.428 955.564 161.654 954.925 164.726 952.418C169.113 948.838 169.285 944.202 169.636 939.002ZM154.139 906.455C150.738 907.997 148.282 909.836 146.827 913.398C145.618 916.356 145.736 919.855 146.989 922.779C148.169 925.532 150.533 927.941 153.331 929.047C155.691 929.98 158.275 929.998 160.762 929.718C164.213 928.223 166.675 926.243 168.147 922.688Q168.397 922.082 168.581 921.453Q168.766 920.823 168.884 920.178Q169.001 919.533 169.051 918.879Q169.1 918.226 169.081 917.57Q169.061 916.915 168.973 916.265Q168.885 915.615 168.729 914.979Q168.573 914.342 168.352 913.724Q168.13 913.107 167.845 912.517C166.567 909.912 164.149 907.683 161.383 906.759C159.104 905.999 156.493 906.207 154.139 906.455Z"/>
	<path d="M577.837 1080.76C578.149 1080.91 578.601 1081.16 578.954 1081.26C582.227 1082.25 593.11 1082.27 596.158 1080.69C596.318 1108.33 596.655 1136.12 596.123 1163.75L595.305 1164.41C591.078 1166.02 576.649 1166.11 572.545 1164.29C569.992 1161.76 542.646 1109.77 541.105 1104.89L541.043 1164.19C540.742 1164.37 540.289 1164.66 539.936 1164.78C536.458 1166 526.078 1165.63 522.577 1164.25L522.582 1110.67C522.573 1100.87 522.215 1090.93 522.87 1081.15C526.855 1082.37 542.056 1082.22 545.934 1081.02C547.938 1086.42 575.212 1136.74 577.848 1138.48C577.51 1119.26 577.78 1099.99 577.837 1080.76Z"/>
	<path d="M177.676 1081.01C183.54 1082.96 204.479 1080.57 213.917 1082.41C219.608 1083.51 225.434 1085.99 228.629 1091.09C231.629 1095.88 232.104 1102.08 230.871 1107.49C229.75 1112.41 227.286 1117.14 222.893 1119.88C224.869 1121.26 226.957 1122.68 228.685 1124.38C232.761 1128.36 234.878 1133.61 234.986 1139.27C235.058 1143.07 234.645 1149.45 231.908 1152.24C231.668 1152.89 231.445 1153.48 231.123 1154.1C228.701 1158.72 223.339 1161.64 218.516 1163.19C212.49 1165.13 182.828 1166.9 177.674 1164.21C177.079 1136.52 177.61 1108.71 177.676 1081.01ZM196.188 1129.75L196.157 1147.92C199.554 1149.79 206.255 1149.54 209.954 1148.38C211.677 1147.84 212.452 1147.09 213.333 1145.52C214.94 1144.3 215.307 1143.36 215.595 1141.38C215.974 1138.78 216.177 1135.55 214.435 1133.38C212.407 1130.85 208.718 1130.48 205.699 1130.28C202.7 1130.08 199.024 1130.68 196.188 1129.75ZM196.2 1096.67L196.161 1113.19C198.848 1114.77 203.151 1114.86 206.125 1114.12C208.038 1113.64 209.496 1112.97 210.51 1111.19C210.586 1111.06 210.643 1110.92 210.709 1110.78C212.144 1109.83 212.67 1108.77 212.968 1107.03C213.372 1104.68 213.086 1101.62 211.615 1099.66C209.926 1097.41 206.122 1097.38 203.584 1097.27C201.256 1097.17 198.359 1097.52 196.2 1096.67Z"/>
	<path d="M509.521 107.416C513.449 107.551 516.921 107.866 519.827 110.792C526.034 117.044 524.256 130.284 524.144 138.283C532.686 138.311 549.638 135.628 556.046 142.033C557.959 143.945 558.591 146.568 558.448 149.207C558.278 152.353 557.147 155.426 554.749 157.549C547.205 164.227 532.476 161.306 523.428 160.792C522.486 174.943 523.246 189.359 523.562 203.53C530.242 209.147 535.354 215.803 539.498 223.475C546.422 236.296 550.23 250.434 554.994 264.124Q565.637 295.078 577.422 325.617C581.158 335.09 585.123 347.002 591.661 354.894C601.486 366.754 615.536 377.03 627.608 386.569Q653.361 406.936 679.959 426.185C689.348 432.86 699.772 438.471 708.305 446.251C713.212 450.726 717.98 456.394 719.786 462.917Q719.935 463.468 720.057 464.026Q720.178 464.584 720.272 465.147Q720.366 465.71 720.432 466.277Q720.498 466.844 720.536 467.414Q720.574 467.984 720.584 468.554Q720.594 469.125 720.576 469.696Q720.558 470.267 720.511 470.836Q720.465 471.405 720.391 471.971Q720.316 472.537 720.214 473.099Q720.112 473.66 719.982 474.216Q719.852 474.772 719.695 475.321Q719.538 475.87 719.354 476.411Q719.171 476.951 718.96 477.482Q718.75 478.013 718.514 478.532Q718.277 479.052 718.016 479.56Q717.754 480.067 717.468 480.561C712.667 488.721 703.905 492.668 695.097 494.848C721.975 508.896 749.815 520.587 777.287 533.378Q804.634 546.031 830.939 560.727C843.653 567.723 858.44 574.685 868.131 585.779C873.387 591.796 876.433 599.442 875.833 607.516C875.342 614.127 872.106 619.858 867.081 624.07C856.847 632.649 840.461 635.318 827.453 634.169C825.656 676.251 826.586 718.452 827.162 760.55C827.363 775.211 826.573 792.944 815.613 803.963C809.2 810.41 801.429 813.043 792.592 814.3C781.33 815.902 769.67 815.166 758.319 815.138L704.049 815.043L517.514 814.888Q429.948 815.53 342.381 815.102L278.613 815.121C266.587 815.128 254.476 815.442 242.464 814.917C229.831 814.365 217.056 812.882 208.145 803.025C202.517 796.799 200.39 788.251 199.197 780.125C196.552 762.106 197.982 737.983 197.982 719.34C197.981 691.216 197.095 662.746 198.432 634.663C190.244 634.989 182.111 634.484 174.152 632.411C165.7 630.21 157.224 625.887 152.728 618.067C149.21 611.948 148.886 604.583 150.818 597.892C160.557 564.164 277.164 520.501 311.782 504.377C317.491 501.718 322.983 498.631 328.474 495.555C322.715 493.398 317.031 490.538 312.439 486.386C307.634 482.042 304.454 476.445 304.291 469.831C304.111 462.547 307.214 456.275 311.988 450.949C320.559 441.388 332.789 434.987 342.972 427.271C372.152 405.162 403.299 383.172 429.043 357.054C432.029 354.025 435.088 350.894 437.322 347.252C441.152 341.012 443.856 333.923 446.728 327.19C456.834 303.498 464.834 278.816 473.335 254.517C477.114 243.716 480.495 232.399 486.239 222.45C490.492 215.082 495.879 208.975 501.781 202.927C501.343 189.238 501.531 175.514 501.552 161.818C492.546 161.857 475.35 164.002 468.518 157.367C466.636 155.539 465.851 152.963 465.918 150.385C465.998 147.312 466.995 144.329 469.36 142.268C476.426 136.11 492.236 138.485 500.89 139.341C500.826 132.53 499.667 125.247 501.214 118.554C502.436 113.269 504.967 110.209 509.521 107.416ZM511.985 391.339C496.024 401.948 481.692 414.585 466.36 426.033C434.105 450.118 400.708 472.412 364.995 491.052C365.556 544.866 370.529 598.603 371.963 652.406C373.207 699.06 370.404 745.945 375.034 792.478C393.279 794.002 411.828 792.589 430.131 793.188C429.393 773.74 427.426 753.981 428.561 734.531C430.455 702.068 443.645 664.08 466.029 640.114C478.636 626.618 494.691 618.586 513.216 618.073Q514.08 618.049 514.944 618.034C534.636 620.093 550.431 629.972 562.84 645.228C584.025 671.273 594.469 708.803 595.652 741.926C596.139 755.585 594.946 769.254 593.486 782.821Q592.956 787.907 592.251 792.972L648.908 793.027C651.277 747.741 651.251 702.513 652.347 657.202Q653.77 611.228 656.32 565.304L658.584 518.451C658.977 509.86 658.816 500.885 660.067 492.389C623.032 474.535 586.361 447.007 553.435 422.379C542.814 414.434 523.134 395.969 511.985 391.339ZM677.609 569.83Q675.004 621.47 674.075 673.167C673.749 711.603 674.818 755.659 670.389 793.384C698.688 792.068 727.479 792.862 755.821 793.05C765.02 793.11 774.351 794.148 783.531 793.633C787.772 793.395 791.958 792.894 795.855 791.109C800.891 787.339 803.805 783.718 804.683 777.301C806.374 764.928 805.023 747.078 804.997 733.999C804.924 698.387 803.898 662.378 805.501 626.806Q762.56 610.356 720.995 590.687C706.479 583.882 692.181 576.485 677.609 569.83ZM345.773 570.672C304.922 592.015 263.28 611.779 219.761 627.084C220.941 662.394 220.197 698.015 220.097 733.361C220.061 746.111 218.046 759.22 219.657 771.896C220.501 778.538 222.447 785.391 227.374 790.21C227.8 790.628 227.977 790.756 228.468 791.166C240.728 794.83 261.749 793.685 274.95 793.703C300.797 793.738 326.673 793.004 352.507 793.183C351.966 769.088 350.685 745.016 350.208 720.922C349.892 705.014 350.023 576.658 345.773 570.672ZM506.058 641.034C488.477 646.103 477.354 659.676 468.8 675.178C449.131 710.825 447.735 753.608 453.368 793.064Q474.709 793.702 496.057 793.379C503.36 793.231 510.649 792.638 517.94 792.471Q530.562 793.029 543.196 792.972C552.167 792.891 561.136 792.412 570.095 793.049C574.542 755.991 576.103 721.457 560.707 686.561C556.622 677.303 551.748 668.185 545.486 660.212C538.097 650.804 528.074 642.48 515.816 640.977C512.589 640.582 509.292 640.846 506.058 641.034ZM508.701 328.121C498.603 330.376 489.874 335.692 481.597 341.749C468.03 351.679 456.198 363.654 443.636 374.761C429.014 387.689 413.721 399.984 398.531 412.24Q374.591 431.256 350.071 449.517C344.521 453.646 338.256 457.116 332.961 461.504C331.208 462.957 329.567 464.665 328.39 466.621C327.578 467.97 327.292 468.946 327.576 470.526C330.08 473.372 333.09 474.528 336.852 474.684C364.669 475.837 439.913 417.902 463.401 399.84C472.995 392.463 489.587 377.874 499.666 372.691C505.221 369.834 511.17 368.324 517.392 369.76C532.728 374.652 549.049 390.474 561.93 400.234C587.507 419.616 648.982 466.058 677.009 474.037C682.336 475.553 687.736 476.142 692.873 473.56C695.206 472.387 697.175 470.632 698.986 468.774C686.89 456.923 672.72 448.134 659.099 438.218C644.162 427.343 629.644 415.693 615.306 404.042Q591.353 384.779 568.454 364.273C558.138 355.086 548.618 344.954 537.182 337.111C529.828 332.068 521.413 327.853 512.285 327.969Q510.491 327.999 508.701 328.121ZM342.979 511.958Q329.247 520.653 314.501 527.489C297.797 535.409 280.606 542.284 263.782 549.946Q230.587 565.014 198.902 583.044C191.81 587.054 174.494 594.666 172.39 602.94C172.014 604.421 172.303 605.943 173.129 607.222C174.142 608.79 175.673 609.998 177.164 611.083C211.284 616.674 312.14 561.957 346.009 546.085C344.904 538.646 346.198 517.301 343.687 512.216L342.979 511.958ZM680.463 511.148C680.035 522.792 680.07 534.552 679.411 546.17C701.187 556.919 723.257 566.646 745.313 576.779C768.218 587.302 824.093 618.557 848.669 610.17C849.156 610.004 849.639 609.827 850.116 609.635C851.704 608.072 853.609 606.425 853.566 603.991C853.508 600.621 848.429 597.106 845.951 595.265C833.866 586.289 819.754 579.26 806.389 572.379Q780.907 559 754.737 547.026C729.41 535.648 704.32 525.542 680.463 511.148ZM511.559 224.076C503.858 235.109 499.036 248.777 494.076 261.225Q482.235 291.461 471.423 322.08C483.638 312.717 497.949 305.524 513.521 304.715C529.486 305.545 540.693 312.338 552.913 322.131Q542.497 293.588 531.763 265.163C528.141 255.402 525.404 244.943 520.682 235.672C518.426 231.244 515.804 226.855 511.559 224.076Z"/>
	<path d="M275.64 648.559C278.371 648.486 281.356 648.758 283.923 649.723C289.288 651.74 293.178 655.988 295.495 661.123C299.475 669.947 299.518 681.567 296.022 690.547C293.14 697.95 288.427 702.672 281.195 705.908C278.602 705.829 275.877 705.703 273.391 704.913C268.023 703.208 263.888 699.245 261.435 694.247C257.307 685.838 257.539 675.017 260.493 666.287C263.243 658.158 267.972 652.415 275.64 648.559Z"/>
	<path d="M744.368 647.957C746.619 648.241 749.053 648.442 751.176 649.275C756.984 651.553 761.211 656.736 763.551 662.373C767.336 671.488 767.558 683.163 763.612 692.261C760.677 699.029 755.957 703.264 749.146 706.01C745.865 706.094 742.678 706.122 739.612 704.779C734.296 702.451 730.832 697.774 728.926 692.435C725.359 682.444 726.271 669.64 730.969 660.162C733.89 654.272 737.996 650.043 744.368 647.957Z"/>
	<path d="M509.458 443.175C519.78 442.352 529.68 444.845 537.736 451.514C546.246 458.559 551.238 469.407 552.248 480.295C553.245 491.052 550.352 501.953 543.365 510.302C536.068 519.019 525.748 523.31 514.619 524.385C504.76 525.021 494.261 522.604 486.29 516.596C477.817 510.211 472.677 500.433 471.327 489.992C469.876 478.773 472.754 466.988 479.835 458.088C487.386 448.598 497.715 444.598 509.458 443.175ZM509.504 465.861C503.551 467.488 498.274 469.828 495.132 475.532Q494.72 476.291 494.386 477.088Q494.051 477.884 493.796 478.709Q493.54 479.534 493.368 480.38Q493.195 481.227 493.106 482.086Q493.017 482.945 493.013 483.809Q493.009 484.673 493.089 485.533Q493.17 486.393 493.335 487.24Q493.5 488.088 493.747 488.916C495.151 493.688 498.523 497.498 502.932 499.736C506.508 501.55 510.197 501.819 514.111 502.073C519.637 500.74 524.373 498.115 527.509 493.189Q527.758 492.796 527.986 492.391Q528.214 491.986 528.421 491.57Q528.629 491.153 528.815 490.727Q529.001 490.301 529.165 489.866Q529.329 489.431 529.471 488.988Q529.612 488.545 529.731 488.095Q529.85 487.646 529.946 487.191Q530.043 486.736 530.115 486.277Q530.188 485.817 530.238 485.355Q530.287 484.893 530.313 484.428Q530.339 483.964 530.341 483.499Q530.343 483.034 530.322 482.57Q530.301 482.105 530.256 481.642Q530.211 481.179 530.142 480.719Q530.074 480.259 529.982 479.804Q529.891 479.348 529.776 478.897Q529.57 478.065 529.282 477.257Q528.995 476.45 528.628 475.675Q528.261 474.9 527.819 474.166Q527.377 473.431 526.865 472.744Q526.352 472.057 525.773 471.425Q525.195 470.793 524.556 470.221Q523.917 469.649 523.225 469.144Q522.532 468.639 521.793 468.205C517.756 465.846 513.99 465.794 509.504 465.861Z"/>
</svg>
